<svg width="53" height="53" viewBox="0 0 53 53" fill="none" xmlns="http://www.w3.org/2000/svg">
<g clip-path="url(#clip0_9_41)">
<mask id="mask0_9_41" style="mask-type:luminance" maskUnits="userSpaceOnUse" x="0" y="0" width="53" height="53">
<path d="M0 0H53V53H0V0Z" fill="white"/>
</mask>
<g mask="url(#mask0_9_41)">
<path d="M11.2183 0H13.6077V2.36071H15.794V0H18.1834V7.14617H15.794V4.75454H13.6077V7.14617H11.2205L11.2183 0ZM21.3237 2.36954H19.2213V0H25.8176V2.36954H23.7131V7.14617H21.3237V2.36954ZM26.8644 0H29.3554L30.8879 2.51088L32.4183 0H34.9093V7.14617H32.5309V3.604L30.8879 6.14579H30.846L29.2008 3.60621V7.14617H26.8644V0ZM36.0974 0H38.489V4.78546H41.8457V7.14838H36.0974V0Z" fill="#011E30"/>
<path fill-rule="evenodd" clip-rule="evenodd" d="M11.1432 48.7424L6.625 10.4167H46.375L41.8545 48.738L26.4779 53L11.1432 48.7424ZM20.2791 27.7632L19.8507 22.949H37.8376L38.2572 18.2497H14.7163L15.9839 32.4648H32.2748L31.7293 38.5598L26.4868 39.9775H26.4823L21.2486 38.5642L20.9129 34.8166H16.1915L16.8496 42.1969L26.4779 44.869L36.1217 42.1969L37.2965 29.0264L37.4114 27.7654L20.2791 27.7632Z" fill="#011E30"/>
</g>
</g>
<defs>
<clipPath id="clip0_9_41">
<rect width="53" height="53" fill="white"/>
</clipPath>
</defs>
</svg>
