<svg width="53" height="53" viewBox="0 0 53 53" fill="none" xmlns="http://www.w3.org/2000/svg">
<g clip-path="url(#clip0_83_17)">
<mask id="mask0_83_17" style="mask-type:luminance" maskUnits="userSpaceOnUse" x="0" y="0" width="53" height="53">
<path d="M0 0H53V53H0V0Z" fill="white"/>
</mask>
<g mask="url(#mask0_83_17)">
<path d="M53 25.8132C53 22.302 48.6032 18.974 41.8612 16.9114C43.418 10.0413 42.7268 4.57346 39.6793 2.82225C38.9409 2.40867 38.1051 2.2005 37.259 2.21937V4.62646C37.7559 4.62646 38.1556 4.72583 38.4912 4.90912C39.9598 5.75271 40.598 8.95921 40.1011 13.0866C39.9819 14.1024 39.7875 15.1713 39.549 16.2622C37.2913 15.7181 34.9999 15.3249 32.69 15.0851C31.3138 13.1866 29.8125 11.3821 28.196 9.68354C31.7183 6.41079 35.0242 4.61763 37.2722 4.61763V2.20833C34.2998 2.20833 30.411 4.32612 26.4779 7.99858C22.5471 4.35042 18.656 2.2525 15.6858 2.2525V4.65958C17.9228 4.65958 21.2397 6.44392 24.762 9.69458C23.2493 11.2846 21.7366 13.0866 20.299 15.0851C17.9843 15.3222 15.6888 15.7192 13.4289 16.2732C13.19 15.2392 13.0021 14.1942 12.8658 13.1418C12.3578 9.01221 12.985 5.80571 14.4447 4.95329C14.7671 4.75896 15.1889 4.67062 15.6858 4.67062V2.26354C14.7804 2.26354 13.9567 2.45787 13.2456 2.86642C10.2091 4.61762 9.52896 10.0722 11.0947 16.9225C4.37471 18.9983 0 22.313 0 25.8132C0 29.3245 4.39679 32.6524 11.1388 34.7128C9.58196 41.5851 10.2732 47.053 13.3207 48.802C14.0229 49.2127 14.8444 49.407 15.7498 49.407C18.7222 49.407 22.6111 47.2893 26.5442 43.6168C30.475 47.2672 34.3639 49.3629 37.3363 49.3629C38.1889 49.3809 39.031 49.1721 39.7765 48.7578C42.813 47.0088 43.4931 41.5542 41.9274 34.704C48.6253 32.6414 53 29.3134 53 25.8132ZM38.9329 18.6074C38.5133 20.0514 38.0269 21.475 37.4754 22.8739C36.5726 21.1178 35.5812 19.4085 34.5052 17.7528C36.04 17.9802 37.5196 18.2607 38.9351 18.6074M33.9885 30.1128C33.1796 31.525 32.3109 32.902 31.3848 34.2402C28.1436 34.5259 24.8836 34.5296 21.6417 34.2513C19.7821 31.595 18.1559 28.7829 16.7811 25.8463C18.1538 22.9029 19.7731 20.0808 21.6218 17.4105C24.8623 17.1242 28.1215 17.1198 31.3627 17.3973C32.2593 18.6825 33.136 20.0561 33.9774 21.5048C34.7989 22.9181 35.5453 24.3535 36.2255 25.8022C35.5378 27.2684 34.7915 28.7065 33.9885 30.1128ZM37.4754 28.7083C38.0584 30.157 38.5575 31.6035 38.966 33.008C37.5527 33.3547 36.0599 33.6462 34.5162 33.8714C35.5878 32.2006 36.5754 30.4775 37.4754 28.7083ZM26.5221 40.2358C25.5173 39.1979 24.5125 38.043 23.5187 36.7776C24.4904 36.8218 25.4842 36.8549 26.489 36.8549C27.5048 36.8549 28.5096 36.8328 29.4923 36.7776C28.5206 38.043 27.5158 39.1979 26.5221 40.2358ZM18.4837 33.8714C16.9948 33.6557 15.5166 33.3712 14.0538 33.019C14.4535 31.6255 14.9504 30.1879 15.5113 28.7525C15.9552 29.6138 16.4212 30.4794 16.9291 31.3451C17.437 32.2085 17.9537 33.0521 18.4837 33.8714ZM26.4669 11.3906C27.4717 12.4285 28.4765 13.5835 29.4702 14.8488C28.4985 14.8047 27.5048 14.7715 26.5 14.7715C25.4842 14.7715 24.4794 14.7936 23.4967 14.8488C24.4683 13.5835 25.4731 12.4285 26.4669 11.3906ZM18.4727 17.755C17.4014 19.4221 16.4138 21.1416 15.5135 22.907C14.9465 21.4991 14.449 20.0642 14.0229 18.6074C15.4362 18.2718 16.9291 17.9803 18.4727 17.755ZM8.69642 31.2788C4.87158 29.6491 2.39825 27.5092 2.39825 25.8132C2.39825 24.1172 4.87158 21.9663 8.69642 20.3476C9.62392 19.9479 10.6398 19.5901 11.6887 19.2567C12.3048 21.3723 13.1153 23.5762 14.1179 25.8353C13.1713 27.9601 12.3708 30.147 11.7218 32.3808C10.696 32.0632 9.68627 31.6954 8.69642 31.2788ZM14.5087 46.7151C13.0402 45.8759 12.402 42.665 12.8989 38.5398C13.0181 37.524 13.2125 36.453 13.451 35.362C15.5665 35.881 17.8787 36.2807 20.31 36.5413C21.6862 38.4398 23.1875 40.2443 24.804 41.9429C21.2817 45.2156 17.9758 47.0088 15.7277 47.0088C15.3036 47.0134 14.8849 46.9133 14.5087 46.7173M40.1342 38.4868C40.6422 42.6142 40.015 45.8229 38.5553 46.6753C38.2329 46.8697 37.8111 46.9558 37.3142 46.9558C35.0772 46.9558 31.7602 45.1737 28.238 41.9208C29.8477 40.2294 31.3389 38.429 32.701 36.5325C35.0157 36.2954 37.3112 35.8984 39.5711 35.3444C39.8207 36.4353 40.0128 37.482 40.1342 38.4868ZM44.2925 31.281C43.365 31.6808 42.3492 32.0385 41.3002 32.372C40.6399 30.1268 39.8283 27.9289 38.8711 25.7933C39.8648 23.5475 40.662 21.3546 41.2671 19.2478C42.2963 19.5665 43.3096 19.9343 44.3036 20.3498C48.1284 21.9795 50.6017 24.1194 50.6017 25.8154C50.5907 27.5114 48.1174 29.6623 44.2925 31.281Z" fill="#011E30"/>
<path d="M26.489 30.751C27.7986 30.751 29.0545 30.2308 29.9805 29.3048C30.9066 28.3788 31.4268 27.1228 31.4268 25.8132C31.4268 24.5036 30.9066 23.2477 29.9805 22.3216C29.0545 21.3956 27.7986 20.8754 26.489 20.8754C25.1794 20.8754 23.9234 21.3956 22.9974 22.3216C22.0714 23.2477 21.5511 24.5036 21.5511 25.8132C21.5511 27.1228 22.0714 28.3788 22.9974 29.3048C23.9234 30.2308 25.1794 30.751 26.489 30.751Z" fill="#011E30"/>
</g>
</g>
<defs>
<clipPath id="clip0_83_17">
<rect width="53" height="53" fill="white"/>
</clipPath>
</defs>
</svg>
