<svg width="53" height="53" viewBox="0 0 53 53" fill="none" xmlns="http://www.w3.org/2000/svg">
<g clip-path="url(#clip0_9_49)">
<path d="M16.5669 0H22.26V2.38058H18.9475V4.76117H22.26V7.14175H16.5669V0ZM23.3973 0H29.0926V2.07142H25.7801V2.48438H29.0926V7.24554H23.3973V5.07254H26.7098V4.65737H23.3973V0ZM30.2321 0H35.923V2.07142H32.6105V2.48438H35.923V7.24554H30.2321V5.07254H33.5446V4.65737H30.2321V0Z" fill="#011E30"/>
<path fill-rule="evenodd" clip-rule="evenodd" d="M26.4801 53L11.1455 48.7424L6.625 10.4167H46.375L41.8568 48.738L26.4801 53ZM15.5621 27.7654L15.9839 32.4647H32.2748L31.7293 38.5597L26.4867 39.9775H26.4823L21.2486 38.5642L20.9129 34.8166H16.1937L16.8518 42.1969L26.4801 44.869L36.1239 42.1969L37.2987 29.0264L37.4136 27.7654L38.2616 18.2497H14.7163L15.1447 22.9512H33.1117L32.6833 27.7654H15.5621Z" fill="#011E30"/>
</g>
<defs>
<clipPath id="clip0_9_49">
<rect width="53" height="53" fill="white"/>
</clipPath>
</defs>
</svg>
