<svg width="304" height="332" viewBox="0 0 304 332" fill="none" xmlns="http://www.w3.org/2000/svg">
<g clip-path="url(#clip0_4_74)">
<path d="M152.42 332C235.981 332 303.72 264.265 303.72 180.709C303.72 97.1531 235.981 29.4177 152.42 29.4177C68.8599 29.4177 1.12074 97.1531 1.12074 180.709C1.12074 264.265 68.8599 332 152.42 332Z" fill="#7510F7"/>
<mask id="mask0_4_74" style="mask-type:luminance" maskUnits="userSpaceOnUse" x="1" y="29" width="303" height="303">
<path d="M152.42 332C235.981 332 303.72 264.265 303.72 180.709C303.72 97.1531 235.981 29.4177 152.42 29.4177C68.8599 29.4177 1.12074 97.1531 1.12074 180.709C1.12074 264.265 68.8599 332 152.42 332Z" fill="white"/>
</mask>
<g mask="url(#mask0_4_74)">
<path d="M304.344 29.4177H1.12074V332H304.344V29.4177Z" fill="#7510F7"/>
</g>
<mask id="mask1_4_74" style="mask-type:luminance" maskUnits="userSpaceOnUse" x="-15" y="-22" width="334" height="354">
<path d="M-14.0092 180.709V-21.0127H318.85V180.709H303.72C303.72 264.265 235.981 332 152.42 332C68.8599 332 1.12074 264.265 1.12074 180.709H-14.0092Z" fill="white"/>
</mask>
<g mask="url(#mask1_4_74)">
<path d="M152.42 24.3747C191.415 24.3747 223.027 55.9845 223.027 94.9772L223.028 102.751C230.183 103.952 235.635 110.175 235.635 117.671V135.322C235.635 142.952 229.986 149.263 222.641 150.301C220.036 175.271 204.414 196.37 182.681 206.694L182.68 229.878H187.723C237.86 229.878 278.503 270.52 278.503 320.653V332H26.3373V320.653C26.3373 270.52 66.9808 229.878 117.117 229.878H122.16L122.161 206.694C100.427 196.371 84.8049 175.271 82.1986 150.301C74.855 149.263 69.2055 142.952 69.2055 135.322V117.671C69.2055 110.174 74.6581 103.951 81.8139 102.751L81.8138 94.9772C81.8138 55.9845 113.425 24.3747 152.42 24.3747Z" fill="#D0C6AC"/>
<mask id="mask2_4_74" style="mask-type:luminance" maskUnits="userSpaceOnUse" x="26" y="24" width="253" height="308">
<path d="M152.42 24.3747C191.415 24.3747 223.027 55.9845 223.027 94.9772L223.028 102.751C230.183 103.952 235.635 110.175 235.635 117.671V135.322C235.635 142.952 229.986 149.263 222.641 150.301C220.036 175.271 204.414 196.37 182.681 206.694L182.68 229.878H187.723C237.86 229.878 278.503 270.52 278.503 320.653V332H26.3373V320.653C26.3373 270.52 66.9808 229.878 117.117 229.878H122.16L122.161 206.694C100.427 196.371 84.8049 175.271 82.1986 150.301C74.855 149.263 69.2055 142.952 69.2055 135.322V117.671C69.2055 110.174 74.6581 103.951 81.8139 102.751L81.8138 94.9772C81.8138 55.9845 113.425 24.3747 152.42 24.3747Z" fill="white"/>
</mask>
<g mask="url(#mask2_4_74)">
<path d="M319.948 24.3747H-14.0092V333.057H319.948V24.3747Z" fill="#FFDBB4"/>
</g>
<mask id="mask3_4_74" style="mask-type:luminance" maskUnits="userSpaceOnUse" x="26" y="24" width="253" height="308">
<path d="M152.42 24.3747C191.415 24.3747 223.027 55.9845 223.027 94.9772L223.028 102.751C230.183 103.952 235.635 110.175 235.635 117.671V135.322C235.635 142.952 229.986 149.263 222.641 150.301C220.036 175.271 204.414 196.37 182.681 206.694L182.68 229.878H187.723C237.86 229.878 278.503 270.52 278.503 320.653V332H26.3373V320.653C26.3373 270.52 66.9808 229.878 117.117 229.878H122.16L122.161 206.694C100.427 196.371 84.8049 175.271 82.1986 150.301C74.855 149.263 69.2055 142.952 69.2055 135.322V117.671C69.2055 110.174 74.6581 103.951 81.8139 102.751L81.8138 94.9772C81.8138 55.9845 113.425 24.3747 152.42 24.3747Z" fill="white"/>
</mask>
<g mask="url(#mask3_4_74)">
<path fill-rule="evenodd" clip-rule="evenodd" d="M81.8138 142.886C81.8138 181.879 113.425 213.489 152.42 213.489C191.415 213.489 223.027 181.879 223.027 142.886V152.972C223.027 191.965 191.415 223.575 152.42 223.575C113.425 223.575 81.8138 191.965 81.8138 152.972V142.886Z" fill="black" fill-opacity="0.1"/>
</g>
<path d="M182.682 209.796C205.503 212.35 223.027 219.369 223.027 237.54L223.019 236.994C255.622 250.765 278.503 283.037 278.503 320.653V332H26.3373V320.653C26.3373 283.037 49.2182 250.765 81.822 236.994C82.1676 219.227 99.5683 212.324 122.16 209.796L122.16 233.661C122.16 250.372 135.708 263.919 152.42 263.919C169.132 263.919 182.68 250.372 182.68 233.661L182.682 209.796Z" fill="#B7C1DB"/>
<mask id="mask4_4_74" style="mask-type:luminance" maskUnits="userSpaceOnUse" x="26" y="209" width="253" height="123">
<path d="M182.682 209.796C205.503 212.35 223.027 219.369 223.027 237.54L223.019 236.994C255.622 250.765 278.503 283.037 278.503 320.653V332H26.3373V320.653C26.3373 283.037 49.2182 250.765 81.822 236.994C82.1676 219.227 99.5683 212.324 122.16 209.796L122.16 233.661C122.16 250.372 135.708 263.919 152.42 263.919C169.132 263.919 182.68 250.372 182.68 233.661L182.682 209.796Z" fill="white"/>
</mask>
<g mask="url(#mask4_4_74)">
<path d="M320.098 193.316H-14.0092V332H320.098V193.316Z" fill="#293347"/>
</g>
<mask id="mask5_4_74" style="mask-type:luminance" maskUnits="userSpaceOnUse" x="26" y="209" width="253" height="123">
<path d="M182.682 209.796C205.503 212.35 223.027 219.369 223.027 237.54L223.019 236.994C255.622 250.765 278.503 283.037 278.503 320.653V332H26.3373V320.653C26.3373 283.037 49.2182 250.765 81.822 236.994C82.1676 219.227 99.5683 212.324 122.16 209.796L122.16 233.661C122.16 250.372 135.708 263.919 152.42 263.919C169.132 263.919 182.68 250.372 182.68 233.661L182.682 209.796Z" fill="white"/>
</mask>
<g mask="url(#mask5_4_74)">
<path fill-rule="evenodd" clip-rule="evenodd" d="M114.595 271.154L114.595 332H105.77L105.768 266.629C108.547 268.281 111.502 269.795 114.595 271.154ZM199.073 266.629L199.071 317.501C199.071 319.938 197.095 321.914 194.658 321.914C192.221 321.914 190.245 319.938 190.245 317.501L190.247 271.154C193.34 269.794 196.294 268.28 199.073 266.629Z" fill="#F4F4F4"/>
</g>
<mask id="mask6_4_74" style="mask-type:luminance" maskUnits="userSpaceOnUse" x="26" y="209" width="253" height="123">
<path d="M182.682 209.796C205.503 212.35 223.027 219.369 223.027 237.54L223.019 236.994C255.622 250.765 278.503 283.037 278.503 320.653V332H26.3373V320.653C26.3373 283.037 49.2182 250.765 81.822 236.994C82.1676 219.227 99.5683 212.324 122.16 209.796L122.16 233.661C122.16 250.372 135.708 263.919 152.42 263.919C169.132 263.919 182.68 250.372 182.68 233.661L182.682 209.796Z" fill="white"/>
</mask>
<g mask="url(#mask6_4_74)">
<path fill-rule="evenodd" clip-rule="evenodd" d="M204.161 209.358C223.139 212.947 236.265 220.098 236.265 234.049C236.265 258.901 194.611 279.048 152.42 279.048C110.23 279.048 68.5751 258.901 68.5751 234.049C68.5751 220.098 81.7011 212.947 100.68 209.358C89.2235 213.58 81.8138 220.681 81.8138 232.497C81.8138 258.206 116.892 279.048 152.42 279.048C187.949 279.048 223.027 258.206 223.027 232.497C223.027 220.928 215.923 213.879 204.872 209.625L204.161 209.358Z" fill="black" fill-opacity="0.16"/>
</g>
<path d="M128.613 167.002C129.947 178.969 140.097 188.273 152.42 188.273C164.782 188.273 174.956 178.911 176.24 166.891C176.343 165.924 175.262 164.319 173.908 164.319C155.13 164.319 140.742 164.319 131.096 164.319C129.734 164.319 128.48 165.805 128.613 167.002Z" fill="black" fill-opacity="0.7"/>
<mask id="mask7_4_74" style="mask-type:luminance" maskUnits="userSpaceOnUse" x="128" y="164" width="49" height="25">
<path d="M128.613 167.002C129.947 178.969 140.097 188.273 152.42 188.273C164.782 188.273 174.956 178.911 176.24 166.891C176.343 165.924 175.262 164.319 173.908 164.319C155.13 164.319 140.742 164.319 131.096 164.319C129.734 164.319 128.48 165.805 128.613 167.002Z" fill="white"/>
</mask>
<g mask="url(#mask7_4_74)">
<path fill-rule="evenodd" clip-rule="evenodd" d="M139.812 150.451H166.289C169.771 150.451 172.594 153.273 172.594 156.754V164.319C172.594 167.8 169.771 170.623 166.289 170.623H139.812C136.33 170.623 133.508 167.8 133.508 164.319V156.754C133.508 153.273 136.33 150.451 139.812 150.451Z" fill="white"/>
</g>
<mask id="mask8_4_74" style="mask-type:luminance" maskUnits="userSpaceOnUse" x="128" y="164" width="49" height="25">
<path d="M128.613 167.002C129.947 178.969 140.097 188.273 152.42 188.273C164.782 188.273 174.956 178.911 176.24 166.891C176.343 165.924 175.262 164.319 173.908 164.319C155.13 164.319 140.742 164.319 131.096 164.319C129.734 164.319 128.48 165.805 128.613 167.002Z" fill="white"/>
</mask>
<g mask="url(#mask8_4_74)">
<path d="M146.116 205.924C153.776 205.924 159.985 199.715 159.985 192.056C159.985 184.396 153.776 178.187 146.116 178.187C138.456 178.187 132.247 184.396 132.247 192.056C132.247 199.715 138.456 205.924 146.116 205.924Z" fill="#FF4F6D"/>
<path d="M158.724 205.924C166.384 205.924 172.594 199.715 172.594 192.056C172.594 184.396 166.384 178.187 158.724 178.187C151.065 178.187 144.855 184.396 144.855 192.056C144.855 199.715 151.065 205.924 158.724 205.924Z" fill="#FF4F6D"/>
</g>
<path fill-rule="evenodd" clip-rule="evenodd" d="M137.29 142.886C137.29 148.456 144.064 152.972 152.42 152.972C160.776 152.972 167.55 148.456 167.55 142.886" fill="black" fill-opacity="0.16"/>
<path fill-rule="evenodd" clip-rule="evenodd" d="M102.189 120.756C104.517 115.967 109.759 112.628 115.853 112.628C121.925 112.628 127.152 115.943 129.493 120.706C130.188 122.12 129.198 123.278 128.201 122.42C125.11 119.763 120.721 118.104 115.853 118.104C111.137 118.104 106.871 119.661 103.8 122.174C102.677 123.093 101.508 122.157 102.189 120.756Z" fill="black" fill-opacity="0.6"/>
<path fill-rule="evenodd" clip-rule="evenodd" d="M175.317 120.756C177.645 115.967 182.887 112.628 188.981 112.628C195.054 112.628 200.28 115.943 202.621 120.706C203.316 122.12 202.327 123.278 201.329 122.42C198.238 119.763 193.85 118.104 188.981 118.104C184.265 118.104 179.999 119.661 176.928 122.174C175.805 123.093 174.636 122.157 175.317 120.756Z" fill="black" fill-opacity="0.6"/>
<path fill-rule="evenodd" clip-rule="evenodd" d="M115.286 90.1213C107.964 90.4595 96.1271 95.7794 96.432 103.162C96.4421 103.404 96.7971 103.51 96.9705 103.324C100.444 99.5932 125.106 95.8231 133.793 97.821C134.588 98.0041 135.192 97.2198 134.688 96.6533C130.374 91.8016 121.845 89.8119 115.286 90.1213Z" fill="black" fill-opacity="0.6"/>
<path fill-rule="evenodd" clip-rule="evenodd" d="M190.816 90.1213C198.137 90.4595 209.974 95.7794 209.669 103.162C209.659 103.404 209.304 103.51 209.131 103.324C205.657 99.5932 180.995 95.8231 172.308 97.821C171.513 98.0041 170.909 97.2198 171.413 96.6533C175.728 91.8016 184.256 89.8119 190.816 90.1213Z" fill="black" fill-opacity="0.6"/>
<mask id="mask9_4_74" style="mask-type:luminance" maskUnits="userSpaceOnUse" x="-15" y="-22" width="334" height="354">
<path d="M318.85 -21.0127H-14.0092V332H318.85V-21.0127Z" fill="white"/>
</mask>
<g mask="url(#mask9_4_74)">
<path d="M211.728 29.3174C208.249 25.762 204.209 22.7443 200.279 19.7181C199.412 19.0511 198.531 18.4001 197.683 17.7076C197.491 17.5502 195.517 16.1366 195.28 15.6163C194.712 14.3646 195.041 15.3392 195.12 13.8456C195.219 11.9568 199.07 6.62234 196.196 5.39901C194.932 4.86095 192.677 6.29282 191.464 6.76574C189.092 7.69127 186.69 8.4806 184.238 9.16121C185.413 6.8203 187.653 2.13426 183.443 3.38847C180.163 4.36561 177.106 6.87783 173.81 8.05971C174.9 6.27209 179.262 0.732843 175.321 0.423203C174.094 0.326758 170.526 2.62706 169.205 3.11774C165.251 4.58768 161.211 5.53775 157.059 6.28605C142.94 8.83042 126.43 8.10497 113.367 14.5325C103.296 19.4876 93.3522 27.1761 87.5345 36.9666C81.9274 46.4034 79.8302 56.731 78.6565 67.5447C77.7954 75.4807 77.7254 83.684 78.1281 91.6488C78.2597 94.2583 78.5532 106.287 82.3444 102.644C84.2333 100.829 84.2194 93.4999 84.6951 91.019C85.6419 86.0829 86.5532 81.1249 88.1317 76.3466C90.9134 67.9263 94.1948 63.9999 101.124 58.2005C105.571 54.4794 108.694 49.4498 112.95 45.6957C114.862 44.0096 113.403 44.1851 116.476 44.4064C118.541 44.5548 120.615 44.6115 122.684 44.6657C127.47 44.79 132.264 44.7583 137.051 44.7752C146.692 44.8099 156.289 44.9461 165.921 44.4415C170.201 44.2173 174.493 44.0959 178.763 43.6999C181.147 43.4787 185.379 41.9504 187.342 43.1183C189.138 44.1868 191.004 47.6758 192.294 49.1047C195.342 52.4815 198.976 55.0606 202.54 57.8296C209.971 63.6032 213.723 65.8117 215.98 74.8344C218.229 83.8236 217.599 92.1634 220.382 101.01C220.872 102.565 222.167 105.246 223.763 102.843C224.06 102.397 223.983 99.9434 223.983 98.5317C223.983 92.8334 225.426 88.5579 225.408 82.8224C225.337 65.3836 224.773 42.6441 211.728 29.3174Z" fill="#1F3140"/>
<mask id="mask10_4_74" style="mask-type:luminance" maskUnits="userSpaceOnUse" x="77" y="0" width="149" height="104">
<path d="M211.728 29.3174C208.249 25.762 204.209 22.7443 200.279 19.7181C199.412 19.0511 198.531 18.4001 197.683 17.7076C197.491 17.5502 195.517 16.1366 195.28 15.6163C194.712 14.3646 195.041 15.3392 195.12 13.8456C195.219 11.9568 199.07 6.62234 196.196 5.39901C194.932 4.86095 192.677 6.29282 191.464 6.76574C189.092 7.69127 186.69 8.4806 184.238 9.16121C185.413 6.8203 187.653 2.13426 183.443 3.38847C180.163 4.36561 177.106 6.87783 173.81 8.05971C174.9 6.27209 179.262 0.732843 175.321 0.423203C174.094 0.326758 170.526 2.62706 169.205 3.11774C165.251 4.58768 161.211 5.53775 157.059 6.28605C142.94 8.83042 126.43 8.10497 113.367 14.5325C103.296 19.4876 93.3522 27.1761 87.5345 36.9666C81.9274 46.4034 79.8302 56.731 78.6565 67.5447C77.7954 75.4807 77.7254 83.684 78.1281 91.6488C78.2597 94.2583 78.5532 106.287 82.3444 102.644C84.2333 100.829 84.2194 93.4999 84.6951 91.019C85.6419 86.0829 86.5532 81.1249 88.1317 76.3466C90.9134 67.9263 94.1948 63.9999 101.124 58.2005C105.571 54.4794 108.694 49.4498 112.95 45.6957C114.862 44.0096 113.403 44.1851 116.476 44.4064C118.541 44.5548 120.615 44.6115 122.684 44.6657C127.47 44.79 132.264 44.7583 137.051 44.7752C146.692 44.8099 156.289 44.9461 165.921 44.4415C170.201 44.2173 174.493 44.0959 178.763 43.6999C181.147 43.4787 185.379 41.9504 187.342 43.1183C189.138 44.1868 191.004 47.6758 192.294 49.1047C195.342 52.4815 198.976 55.0606 202.54 57.8296C209.971 63.6032 213.723 65.8117 215.98 74.8344C218.229 83.8236 217.599 92.1634 220.382 101.01C220.872 102.565 222.167 105.246 223.763 102.843C224.06 102.397 223.983 99.9434 223.983 98.5317C223.983 92.8334 225.426 88.5579 225.408 82.8224C225.337 65.3836 224.773 42.6441 211.728 29.3174Z" fill="white"/>
</mask>
<g mask="url(#mask10_4_74)">
<path d="M320.821 -21.0127H-14.1493V332.569H320.821V-21.0127Z" fill="#4A312C"/>
</g>
</g>
</g>
</g>
<defs>
<clipPath id="clip0_4_74">
<rect width="304" height="332" fill="white"/>
</clipPath>
</defs>
</svg>
