<svg width="53" height="53" viewBox="0 0 53 53" fill="none" xmlns="http://www.w3.org/2000/svg">
<g clip-path="url(#clip0_83_10)">
<mask id="mask0_83_10" style="mask-type:luminance" maskUnits="userSpaceOnUse" x="0" y="0" width="53" height="53">
<path d="M0 0H53V53H0V0Z" fill="white"/>
</mask>
<g mask="url(#mask0_83_10)">
<path fill-rule="evenodd" clip-rule="evenodd" d="M0 0H53V53H0V0ZM40.5163 44.4317C38.0584 44.4317 36.6694 43.1508 35.6027 41.4062L31.5549 43.7581C33.0168 46.6466 36.0047 48.8505 40.6311 48.8505C45.3614 48.8505 48.8837 46.3949 48.8837 41.9097C48.8837 37.7515 46.4942 35.9031 42.2631 34.0856L41.0176 33.5534C38.8799 32.6259 37.9546 32.023 37.9546 30.528C37.9546 29.32 38.8821 28.3947 40.3396 28.3947C41.7684 28.3947 42.6893 28.9976 43.5439 30.528L47.4218 28.0392C45.781 25.1529 43.5064 24.051 40.3396 24.051C35.892 24.051 33.0455 26.8953 33.0455 30.6318C33.0455 34.6841 35.4305 36.6031 39.0257 38.1335L40.2712 38.6679C42.5435 39.6617 43.8972 40.2667 43.8972 41.9738C43.8972 43.4004 42.5789 44.4317 40.5163 44.4317ZM21.2155 44.3985C19.504 44.3985 18.7907 43.2281 18.009 41.8369L13.9545 44.2925C15.1293 46.7791 17.4392 48.8417 21.4252 48.8417C25.8397 48.8417 28.8629 46.4942 28.8629 41.3378V24.3336H23.8831V41.2715C23.8831 43.7603 22.8496 44.3985 21.2132 44.3985" fill="#011E30"/>
</g>
</g>
<defs>
<clipPath id="clip0_83_10">
<rect width="53" height="53" fill="white"/>
</clipPath>
</defs>
</svg>
