<svg width="53" height="53" viewBox="0 0 53 53" fill="none" xmlns="http://www.w3.org/2000/svg">
<g clip-path="url(#clip0_20_7)">
<path d="M9.38514 0.662476C4.1957 0.662476 0 4.85858 0 10.0484V42.9515C0 48.1414 4.1957 52.3375 9.38514 52.3375H43.6149C48.8043 52.3375 53 48.1414 53 42.9515V10.0484C53 4.85858 48.8043 0.662476 43.6149 0.662476H9.38514ZM18.9918 13.8023C20.8025 13.8023 22.3043 14.0226 23.5407 14.4864C24.6494 14.8631 25.6602 15.4819 26.5 16.2979C27.2117 17.0116 27.7616 17.87 28.1124 18.815C28.4436 19.7425 28.6196 20.6919 28.6196 21.6857C28.6196 23.585 28.1782 25.1526 27.2946 26.3894C26.4118 27.6258 25.1754 28.5537 23.7399 29.0837C22.2381 29.6361 20.5818 29.8344 18.7711 29.8344C18.2411 29.8344 17.8871 29.8344 17.6664 29.8125C17.4457 29.7905 17.1364 29.7905 16.7169 29.7905V36.8793C16.7389 37.0337 16.6287 37.1666 16.4743 37.1886H12.19C12.0136 37.1886 11.9258 37.0996 11.9258 36.9008V14.1775C11.9258 14.023 11.9921 13.934 12.1465 13.934C12.5221 13.934 12.8753 13.934 13.3829 13.9125C13.9129 13.8901 14.4649 13.8909 15.0611 13.8686C15.6574 13.8466 16.2979 13.8462 16.9824 13.8243C17.6672 13.8019 18.3293 13.8023 18.9918 13.8023ZM19.4845 18.1516C19.3718 18.1495 19.259 18.1497 19.1463 18.1525C18.5724 18.1525 18.0643 18.1529 17.6444 18.1752C17.2031 18.1529 16.8942 18.1748 16.7397 18.1968V25.6168C17.0486 25.6391 17.3351 25.6607 17.6001 25.6607H18.7711C19.6324 25.6607 20.4936 25.5282 21.3106 25.2632C22.0174 25.0644 22.6356 24.6446 23.1213 24.0926C23.585 23.5403 23.8061 22.79 23.8061 21.8182C23.827 21.1282 23.6509 20.4466 23.2985 19.853C22.9229 19.2791 22.3925 18.8369 21.7519 18.5943C21.0369 18.3044 20.2713 18.167 19.4845 18.1516ZM38.0056 19.2791C38.9111 19.2791 39.8386 19.3446 40.7438 19.4771C41.4063 19.5653 42.0464 19.7429 42.6426 19.9859C42.7313 20.0079 42.8194 20.0957 42.8633 20.1839C42.8857 20.2721 42.9081 20.3607 42.9081 20.4489V24.0487C42.9084 24.0916 42.8987 24.134 42.8795 24.1723C42.8604 24.2107 42.8324 24.244 42.7979 24.2694C42.5992 24.3137 42.4886 24.3137 42.4004 24.2694C41.7379 23.9162 41.0307 23.6736 40.2796 23.5191C39.4626 23.3423 38.6457 23.2314 37.8068 23.2314C37.365 23.209 36.9008 23.2761 36.4814 23.3862C36.194 23.4525 35.9514 23.6073 35.7969 23.828C35.6868 24.0048 35.6206 24.2255 35.6206 24.4243C35.6206 24.623 35.7092 24.8218 35.8417 24.9982C36.0404 25.2412 36.305 25.4404 36.5919 25.5952C37.104 25.86 37.6272 26.1027 38.16 26.3228C39.3525 26.7203 40.5007 27.273 41.5607 27.9355C42.2894 28.3993 42.8857 29.0179 43.3051 29.7686C43.6603 30.473 43.835 31.2545 43.8136 32.043C43.8312 33.0868 43.5305 34.1113 42.9515 34.98C42.3357 35.8614 41.4765 36.5443 40.4788 36.9451C39.3964 37.4089 38.0714 37.6519 36.4814 37.6519C35.4653 37.6519 34.4724 37.5637 33.4786 37.365C32.6997 37.2304 31.9423 36.9927 31.2261 36.6582C31.0717 36.57 30.9607 36.4151 30.9826 36.2383V32.3962C30.9826 32.33 31.0046 32.2414 31.0708 32.1975C31.1371 32.1532 31.2033 32.1759 31.2696 32.2198C32.1203 32.7215 33.0444 33.0867 34.0082 33.3022C34.8475 33.5229 35.7311 33.633 36.6147 33.633C37.4536 33.633 38.0499 33.5225 38.4474 33.3237C38.8006 33.1693 39.0432 32.7937 39.0432 32.3962C39.0432 32.0873 38.8668 31.7996 38.5132 31.5122C38.16 31.2253 37.4313 30.8944 36.3493 30.475C35.2392 30.0838 34.1849 29.5493 33.2132 28.885C32.5213 28.3918 31.948 27.7506 31.535 27.008C31.1826 26.3106 31.0082 25.5367 31.0274 24.7555C31.0274 23.8061 31.2919 22.9005 31.7776 22.0836C32.3296 21.2004 33.1474 20.4936 34.0972 20.0522C35.1349 19.5222 36.4371 19.2791 38.0056 19.2791Z" fill="#011E30"/>
</g>
<defs>
<clipPath id="clip0_20_7">
<rect width="53" height="53" fill="white"/>
</clipPath>
</defs>
</svg>
