<svg width="47" height="50" viewBox="0 0 47 50" fill="none" xmlns="http://www.w3.org/2000/svg">
<g clip-path="url(#clip0_29_37)">
<path d="M23.565 50C36.4839 50 46.9567 39.7989 46.9567 27.2152C46.9567 14.6315 36.4839 4.43039 23.565 4.43039C10.6461 4.43039 0.173279 14.6315 0.173279 27.2152C0.173279 39.7989 10.6461 50 23.565 50Z" fill="#7510F7"/>
<mask id="mask0_29_37" style="mask-type:luminance" maskUnits="userSpaceOnUse" x="0" y="4" width="47" height="46">
<path d="M23.565 50C36.4839 50 46.9567 39.7989 46.9567 27.2152C46.9567 14.6315 36.4839 4.43039 23.565 4.43039C10.6461 4.43039 0.173279 14.6315 0.173279 27.2152C0.173279 39.7989 10.6461 50 23.565 50Z" fill="white"/>
</mask>
<g mask="url(#mask0_29_37)">
<path d="M47.0532 4.43039H0.173279V50H47.0532V4.43039Z" fill="#7510F7"/>
</g>
<mask id="mask1_29_37" style="mask-type:luminance" maskUnits="userSpaceOnUse" x="-3" y="-4" width="53" height="54">
<path d="M-2.16589 27.2152V-3.16455H49.2959V27.2152H46.9567C46.9567 39.7989 36.4839 50 23.565 50C10.6461 50 0.173277 39.7989 0.173277 27.2152H-2.16589Z" fill="white"/>
</mask>
<g mask="url(#mask1_29_37)">
<path d="M23.565 3.6709C29.5938 3.6709 34.4811 8.43142 34.4811 14.3038L34.4813 15.4746C35.5875 15.6555 36.4304 16.5926 36.4304 17.7215V20.3798C36.4304 21.529 35.557 22.4794 34.4215 22.6357C34.0187 26.3962 31.6035 29.5738 28.2435 31.1286L28.2433 34.6203H29.0231C36.7744 34.6203 43.0581 40.7409 43.0581 48.2912V50H4.0719V48.2912C4.0719 40.7409 10.3556 34.6203 18.1069 34.6203H18.8866L18.8867 31.1287C15.5266 29.5739 13.1113 26.3963 12.7083 22.6357C11.573 22.4794 10.6995 21.529 10.6995 20.3798V17.7215C10.6995 16.5925 11.5425 15.6553 12.6489 15.4746L12.6489 14.3038C12.6489 8.43142 17.5362 3.6709 23.565 3.6709Z" fill="#D0C6AC"/>
<mask id="mask2_29_37" style="mask-type:luminance" maskUnits="userSpaceOnUse" x="4" y="3" width="40" height="47">
<path d="M23.565 3.6709C29.5938 3.6709 34.4811 8.43142 34.4811 14.3038L34.4813 15.4746C35.5875 15.6555 36.4304 16.5926 36.4304 17.7215V20.3798C36.4304 21.529 35.557 22.4794 34.4215 22.6357C34.0187 26.3962 31.6035 29.5738 28.2435 31.1286L28.2433 34.6203H29.0231C36.7744 34.6203 43.0581 40.7409 43.0581 48.2912V50H4.0719V48.2912C4.0719 40.7409 10.3556 34.6203 18.1069 34.6203H18.8866L18.8867 31.1287C15.5266 29.5739 13.1113 26.3963 12.7083 22.6357C11.573 22.4794 10.6995 21.529 10.6995 20.3798V17.7215C10.6995 16.5925 11.5425 15.6553 12.6489 15.4746L12.6489 14.3038C12.6489 8.43142 17.5362 3.6709 23.565 3.6709Z" fill="white"/>
</mask>
<g mask="url(#mask2_29_37)">
<path d="M49.4656 3.6709H-2.16589V50.1593H49.4656V3.6709Z" fill="#FFDBB4"/>
</g>
<mask id="mask3_29_37" style="mask-type:luminance" maskUnits="userSpaceOnUse" x="4" y="3" width="40" height="47">
<path d="M23.565 3.6709C29.5938 3.6709 34.4811 8.43142 34.4811 14.3038L34.4813 15.4746C35.5875 15.6555 36.4304 16.5926 36.4304 17.7215V20.3798C36.4304 21.529 35.557 22.4794 34.4215 22.6357C34.0187 26.3962 31.6035 29.5738 28.2435 31.1286L28.2433 34.6203H29.0231C36.7744 34.6203 43.0581 40.7409 43.0581 48.2912V50H4.0719V48.2912C4.0719 40.7409 10.3556 34.6203 18.1069 34.6203H18.8866L18.8867 31.1287C15.5266 29.5739 13.1113 26.3963 12.7083 22.6357C11.573 22.4794 10.6995 21.529 10.6995 20.3798V17.7215C10.6995 16.5925 11.5425 15.6553 12.6489 15.4746L12.6489 14.3038C12.6489 8.43142 17.5362 3.6709 23.565 3.6709Z" fill="white"/>
</mask>
<g mask="url(#mask3_29_37)">
<path fill-rule="evenodd" clip-rule="evenodd" d="M12.6489 21.519C12.6489 27.3914 17.5362 32.1519 23.565 32.1519C29.5938 32.1519 34.4811 27.3914 34.4811 21.519V23.038C34.4811 28.9104 29.5938 33.6709 23.565 33.6709C17.5362 33.6709 12.6489 28.9104 12.6489 23.038V21.519Z" fill="black" fill-opacity="0.1"/>
</g>
<path d="M28.2436 31.5958C31.7718 31.9804 34.4811 33.0374 34.4811 35.7741L34.4799 35.6919C39.5206 37.7658 43.0581 42.626 43.0581 48.2911V50H4.0719V48.2911C4.0719 42.626 7.60941 37.7658 12.6501 35.6919C12.7036 33.0161 15.3938 31.9765 18.8866 31.5958L18.8866 35.1899C18.8866 37.7066 20.9812 39.7469 23.565 39.7469C26.1488 39.7469 28.2433 37.7066 28.2433 35.1899L28.2436 31.5958Z" fill="#B7C1DB"/>
<mask id="mask4_29_37" style="mask-type:luminance" maskUnits="userSpaceOnUse" x="4" y="31" width="40" height="19">
<path d="M28.2436 31.5958C31.7718 31.9804 34.4811 33.0374 34.4811 35.7741L34.4799 35.6919C39.5206 37.7658 43.0581 42.626 43.0581 48.2911V50H4.0719V48.2911C4.0719 42.626 7.60941 37.7658 12.6501 35.6919C12.7036 33.0161 15.3938 31.9765 18.8866 31.5958L18.8866 35.1899C18.8866 37.7066 20.9812 39.7469 23.565 39.7469C26.1488 39.7469 28.2433 37.7066 28.2433 35.1899L28.2436 31.5958Z" fill="white"/>
</mask>
<g mask="url(#mask4_29_37)">
<path d="M49.4888 29.114H-2.16589V50H49.4888V29.114Z" fill="#293347"/>
</g>
<mask id="mask5_29_37" style="mask-type:luminance" maskUnits="userSpaceOnUse" x="4" y="31" width="40" height="19">
<path d="M28.2436 31.5958C31.7718 31.9804 34.4811 33.0374 34.4811 35.7741L34.4799 35.6919C39.5206 37.7658 43.0581 42.626 43.0581 48.2911V50H4.0719V48.2911C4.0719 42.626 7.60941 37.7658 12.6501 35.6919C12.7036 33.0161 15.3938 31.9765 18.8866 31.5958L18.8866 35.1899C18.8866 37.7066 20.9812 39.7469 23.565 39.7469C26.1488 39.7469 28.2433 37.7066 28.2433 35.1899L28.2436 31.5958Z" fill="white"/>
</mask>
<g mask="url(#mask5_29_37)">
<path fill-rule="evenodd" clip-rule="evenodd" d="M17.717 40.8365L17.717 50H16.3525L16.3523 40.155C16.7819 40.4037 17.2387 40.6318 17.717 40.8365ZM30.7777 40.1549L30.7774 47.8165C30.7774 48.1835 30.4719 48.481 30.0951 48.481C29.7183 48.481 29.4129 48.1835 29.4129 47.8165L29.4131 40.8364C29.8914 40.6317 30.3481 40.4037 30.7777 40.1549Z" fill="#F4F4F4"/>
</g>
<mask id="mask6_29_37" style="mask-type:luminance" maskUnits="userSpaceOnUse" x="4" y="31" width="40" height="19">
<path d="M28.2436 31.5958C31.7718 31.9804 34.4811 33.0374 34.4811 35.7741L34.4799 35.6919C39.5206 37.7658 43.0581 42.626 43.0581 48.2911V50H4.0719V48.2911C4.0719 42.626 7.60941 37.7658 12.6501 35.6919C12.7036 33.0161 15.3938 31.9765 18.8866 31.5958L18.8866 35.1899C18.8866 37.7066 20.9812 39.7469 23.565 39.7469C26.1488 39.7469 28.2433 37.7066 28.2433 35.1899L28.2436 31.5958Z" fill="white"/>
</mask>
<g mask="url(#mask6_29_37)">
<path fill-rule="evenodd" clip-rule="evenodd" d="M31.5644 31.5298C34.4986 32.0703 36.5279 33.1473 36.5279 35.2483C36.5279 38.9911 30.0879 42.0253 23.565 42.0253C17.0422 42.0253 10.6021 38.9911 10.6021 35.2483C10.6021 33.1473 12.6315 32.0703 15.5656 31.5298C13.7945 32.1657 12.6489 33.2351 12.6489 35.0146C12.6489 38.8865 18.0721 42.0253 23.565 42.0253C29.0579 42.0253 34.4811 38.8865 34.4811 35.0146C34.4811 33.2723 33.3829 32.2107 31.6744 31.5701L31.5644 31.5298Z" fill="black" fill-opacity="0.16"/>
</g>
<path d="M19.8843 25.1509C20.0905 26.9531 21.6597 28.3544 23.565 28.3544C25.4761 28.3544 27.0492 26.9444 27.2476 25.1342C27.2635 24.9885 27.0965 24.7468 26.8871 24.7468C23.9838 24.7468 21.7595 24.7468 20.2681 24.7468C20.0575 24.7468 19.8636 24.9706 19.8843 25.1509Z" fill="black" fill-opacity="0.7"/>
<mask id="mask7_29_37" style="mask-type:luminance" maskUnits="userSpaceOnUse" x="19" y="24" width="9" height="5">
<path d="M19.8843 25.1509C20.0905 26.9531 21.6597 28.3544 23.565 28.3544C25.4761 28.3544 27.0492 26.9444 27.2476 25.1342C27.2635 24.9885 27.0965 24.7468 26.8871 24.7468C23.9838 24.7468 21.7595 24.7468 20.2681 24.7468C20.0575 24.7468 19.8636 24.9706 19.8843 25.1509Z" fill="white"/>
</mask>
<g mask="url(#mask7_29_37)">
<path fill-rule="evenodd" clip-rule="evenodd" d="M21.6156 22.6582H25.7092C26.2475 22.6582 26.6838 23.0833 26.6838 23.6076V24.7468C26.6838 25.2712 26.2475 25.6962 25.7092 25.6962H21.6156C21.0774 25.6962 20.641 25.2712 20.641 24.7468V23.6076C20.641 23.0833 21.0774 22.6582 21.6156 22.6582Z" fill="white"/>
</g>
<mask id="mask8_29_37" style="mask-type:luminance" maskUnits="userSpaceOnUse" x="19" y="24" width="9" height="5">
<path d="M19.8843 25.1509C20.0905 26.9531 21.6597 28.3544 23.565 28.3544C25.4761 28.3544 27.0492 26.9444 27.2476 25.1342C27.2635 24.9885 27.0965 24.7468 26.8871 24.7468C23.9838 24.7468 21.7595 24.7468 20.2681 24.7468C20.0575 24.7468 19.8636 24.9706 19.8843 25.1509Z" fill="white"/>
</mask>
<g mask="url(#mask8_29_37)">
<path d="M22.5903 31.0127C23.7746 31.0127 24.7346 30.0776 24.7346 28.9241C24.7346 27.7706 23.7746 26.8354 22.5903 26.8354C21.4061 26.8354 20.4461 27.7706 20.4461 28.9241C20.4461 30.0776 21.4061 31.0127 22.5903 31.0127Z" fill="#FF4F6D"/>
<path d="M24.5396 31.0127C25.7239 31.0127 26.6839 30.0776 26.6839 28.9241C26.6839 27.7706 25.7239 26.8354 24.5396 26.8354C23.3554 26.8354 22.3954 27.7706 22.3954 28.9241C22.3954 30.0776 23.3554 31.0127 24.5396 31.0127Z" fill="#FF4F6D"/>
</g>
<path fill-rule="evenodd" clip-rule="evenodd" d="M21.2258 21.519C21.2258 22.3579 22.2731 23.038 23.565 23.038C24.8569 23.038 25.9042 22.3579 25.9042 21.519" fill="black" fill-opacity="0.16"/>
<path fill-rule="evenodd" clip-rule="evenodd" d="M15.799 18.1862C16.1589 17.4649 16.9694 16.962 17.9115 16.962C18.8503 16.962 19.6584 17.4614 20.0202 18.1786C20.1277 18.3916 19.9748 18.566 19.8205 18.4368C19.3427 18.0367 18.6642 17.7868 17.9115 17.7868C17.1824 17.7868 16.5229 18.0213 16.048 18.3997C15.8743 18.538 15.6937 18.3972 15.799 18.1862Z" fill="black" fill-opacity="0.6"/>
<path fill-rule="evenodd" clip-rule="evenodd" d="M27.105 18.1862C27.4649 17.4649 28.2754 16.962 29.2175 16.962C30.1563 16.962 30.9644 17.4614 31.3262 18.1786C31.4337 18.3916 31.2807 18.566 31.1265 18.4368C30.6487 18.0367 29.9702 17.7868 29.2175 17.7868C28.4884 17.7868 27.8288 18.0213 27.354 18.3997C27.1803 18.538 26.9997 18.3972 27.105 18.1862Z" fill="black" fill-opacity="0.6"/>
<path fill-rule="evenodd" clip-rule="evenodd" d="M17.8237 13.5725C16.6918 13.6234 14.8617 14.4246 14.9089 15.5365C14.9105 15.5729 14.9653 15.5889 14.9921 15.5609C15.5292 14.999 19.3421 14.4312 20.6851 14.7321C20.808 14.7597 20.9014 14.6415 20.8235 14.5562C20.1565 13.8255 18.8379 13.5259 17.8237 13.5725Z" fill="black" fill-opacity="0.6"/>
<path fill-rule="evenodd" clip-rule="evenodd" d="M29.5011 13.5725C30.6331 13.6234 32.4631 14.4246 32.416 15.5365C32.4144 15.5729 32.3596 15.5889 32.3327 15.5609C31.7957 14.999 27.9828 14.4312 26.6398 14.7321C26.5169 14.7597 26.4235 14.6415 26.5014 14.5562C27.1684 13.8255 28.487 13.5259 29.5011 13.5725Z" fill="black" fill-opacity="0.6"/>
<mask id="mask9_29_37" style="mask-type:luminance" maskUnits="userSpaceOnUse" x="-3" y="-4" width="53" height="54">
<path d="M49.2959 -3.16455H-2.16589V50H49.2959V-3.16455Z" fill="white"/>
</mask>
<g mask="url(#mask9_29_37)">
<path d="M32.7343 4.41527C32.1964 3.87982 31.5717 3.42535 30.9642 2.9696C30.8302 2.86914 30.694 2.77109 30.5629 2.66681C30.5331 2.64311 30.2279 2.43021 30.1914 2.35185C30.1035 2.16334 30.1544 2.31012 30.1666 2.08518C30.1819 1.80073 30.7774 0.997341 30.333 0.813105C30.1375 0.732072 29.7889 0.947715 29.6013 1.01894C29.2346 1.15833 28.8633 1.2772 28.4842 1.3797C28.6659 1.02716 29.0122 0.321426 28.3612 0.510313C27.8541 0.657473 27.3815 1.03582 26.8719 1.21381C27.0405 0.944593 27.7148 0.11037 27.1056 0.0637371C26.9159 0.0492123 26.3642 0.395643 26.1601 0.469541C25.5486 0.690918 24.9241 0.834 24.2821 0.946696C22.0993 1.32988 19.5467 1.22063 17.5272 2.18863C15.9702 2.93488 14.4328 4.09279 13.5333 5.56726C12.6664 6.98846 12.3422 8.54383 12.1607 10.1724C12.0276 11.3676 12.0168 12.603 12.079 13.8025C12.0994 14.1955 12.1448 16.0071 12.7309 15.4585C13.0229 15.1851 13.0208 14.0813 13.0943 13.7077C13.2407 12.9643 13.3816 12.2176 13.6256 11.498C14.0557 10.2299 14.563 9.63855 15.6344 8.76514C16.3219 8.20473 16.8047 7.44727 17.4627 6.88188C17.7582 6.62795 17.5327 6.65439 18.0079 6.68771C18.3271 6.71007 18.6477 6.7186 18.9676 6.72676C19.7076 6.74549 20.4487 6.74071 21.1888 6.74326C22.6794 6.74848 24.1631 6.76899 25.6522 6.69299C26.314 6.65923 26.9776 6.64095 27.6376 6.58132C28.0064 6.548 28.6606 6.31783 28.9641 6.49372C29.2418 6.65464 29.5303 7.18009 29.7297 7.39528C30.2009 7.90384 30.7627 8.29226 31.3138 8.70927C32.4627 9.57879 33.0428 9.9114 33.3917 11.2702C33.7394 12.624 33.6419 13.88 34.0722 15.2123C34.1479 15.4465 34.3482 15.8503 34.595 15.4884C34.6408 15.4212 34.629 15.0517 34.629 14.8391C34.629 13.9809 34.8521 13.337 34.8493 12.4733C34.8383 9.84693 34.7512 6.42231 32.7343 4.41527Z" fill="#1F3140"/>
<mask id="mask10_29_37" style="mask-type:luminance" maskUnits="userSpaceOnUse" x="12" y="0" width="23" height="16">
<path d="M32.7343 4.41527C32.1964 3.87982 31.5717 3.42535 30.9642 2.9696C30.8302 2.86914 30.694 2.77109 30.5629 2.66681C30.5331 2.64311 30.2279 2.43021 30.1914 2.35185C30.1035 2.16334 30.1544 2.31012 30.1666 2.08518C30.1819 1.80073 30.7774 0.997341 30.333 0.813105C30.1375 0.732072 29.7889 0.947715 29.6013 1.01894C29.2346 1.15833 28.8633 1.2772 28.4842 1.3797C28.6659 1.02716 29.0122 0.321426 28.3612 0.510313C27.8541 0.657473 27.3815 1.03582 26.8719 1.21381C27.0405 0.944593 27.7148 0.11037 27.1056 0.0637371C26.9159 0.0492123 26.3642 0.395643 26.1601 0.469541C25.5486 0.690918 24.9241 0.834 24.2821 0.946696C22.0993 1.32988 19.5467 1.22063 17.5272 2.18863C15.9702 2.93488 14.4328 4.09279 13.5333 5.56726C12.6664 6.98846 12.3422 8.54383 12.1607 10.1724C12.0276 11.3676 12.0168 12.603 12.079 13.8025C12.0994 14.1955 12.1448 16.0071 12.7309 15.4585C13.0229 15.1851 13.0208 14.0813 13.0943 13.7077C13.2407 12.9643 13.3816 12.2176 13.6256 11.498C14.0557 10.2299 14.563 9.63855 15.6344 8.76514C16.3219 8.20473 16.8047 7.44727 17.4627 6.88188C17.7582 6.62795 17.5327 6.65439 18.0079 6.68771C18.3271 6.71007 18.6477 6.7186 18.9676 6.72676C19.7076 6.74549 20.4487 6.74071 21.1888 6.74326C22.6794 6.74848 24.1631 6.76899 25.6522 6.69299C26.314 6.65923 26.9776 6.64095 27.6376 6.58132C28.0064 6.548 28.6606 6.31783 28.9641 6.49372C29.2418 6.65464 29.5303 7.18009 29.7297 7.39528C30.2009 7.90384 30.7627 8.29226 31.3138 8.70927C32.4627 9.57879 33.0428 9.9114 33.3917 11.2702C33.7394 12.624 33.6419 13.88 34.0722 15.2123C34.1479 15.4465 34.3482 15.8503 34.595 15.4884C34.6408 15.4212 34.629 15.0517 34.629 14.8391C34.629 13.9809 34.8521 13.337 34.8493 12.4733C34.8383 9.84693 34.7512 6.42231 32.7343 4.41527Z" fill="white"/>
</mask>
<g mask="url(#mask10_29_37)">
<path d="M49.6006 -3.16455H-2.18756V50.0858H49.6006V-3.16455Z" fill="#4A312C"/>
</g>
</g>
</g>
</g>
<defs>
<clipPath id="clip0_29_37">
<rect width="47" height="50" fill="white"/>
</clipPath>
</defs>
</svg>
