<svg width="35" height="35" viewBox="0 0 35 35" fill="none" xmlns="http://www.w3.org/2000/svg">
<path d="M27.7813 7.16042C26.4443 5.80989 24.8517 4.7391 23.0966 4.01049C21.3414 3.28188 19.4587 2.91005 17.5583 2.91667C9.59584 2.91667 3.10626 9.40625 3.10626 17.3687C3.10626 19.9208 3.77709 22.4 5.03126 24.5875L2.98959 32.0833L10.6458 30.0708C12.7604 31.2229 15.1375 31.8354 17.5583 31.8354C25.5208 31.8354 32.0104 25.3458 32.0104 17.3833C32.0104 13.5188 30.5083 9.8875 27.7813 7.16042ZM17.5583 29.3854C15.4 29.3854 13.2854 28.8021 11.4333 27.7083L10.9958 27.4458L6.44584 28.6417L7.65626 24.2083L7.36459 23.7563C6.16547 21.8414 5.52876 19.6281 5.52709 17.3687C5.52709 10.7479 10.9229 5.35208 17.5438 5.35208C20.7521 5.35208 23.7708 6.60625 26.0313 8.88125C27.1505 9.99536 28.0375 11.3205 28.6408 12.78C29.2441 14.2394 29.5517 15.8041 29.5458 17.3833C29.575 24.0042 24.1792 29.3854 17.5583 29.3854ZM24.15 20.4021C23.7854 20.2271 22.0063 19.3521 21.6854 19.2208C21.35 19.1042 21.1167 19.0458 20.8688 19.3958C20.6208 19.7604 19.9354 20.5771 19.7313 20.8104C19.5271 21.0583 19.3083 21.0875 18.9438 20.8979C18.5792 20.7229 17.4125 20.3292 16.0417 19.1042C14.9625 18.1417 14.2479 16.9604 14.0292 16.5958C13.825 16.2313 14 16.0417 14.1896 15.8521C14.35 15.6917 14.5542 15.4292 14.7292 15.225C14.9042 15.0208 14.9771 14.8604 15.0938 14.6271C15.2104 14.3792 15.1521 14.175 15.0646 14C14.9771 13.825 14.2479 12.0458 13.9563 11.3167C13.6646 10.6167 13.3583 10.7042 13.1396 10.6896H12.4396C12.1917 10.6896 11.8125 10.7771 11.4771 11.1417C11.1563 11.5063 10.2229 12.3813 10.2229 14.1604C10.2229 15.9396 11.5208 17.6604 11.6958 17.8938C11.8708 18.1417 14.2479 21.7875 17.8646 23.3479C18.725 23.7271 19.3958 23.9458 19.9208 24.1063C20.7813 24.3833 21.5688 24.3396 22.1958 24.2521C22.8958 24.15 24.3396 23.3771 24.6313 22.5313C24.9375 21.6854 24.9375 20.9708 24.8354 20.8104C24.7333 20.65 24.5146 20.5771 24.15 20.4021Z" fill="#F8F8F8"/>
</svg>
