<svg width="53" height="53" viewBox="0 0 53 53" fill="none" xmlns="http://www.w3.org/2000/svg">
<g clip-path="url(#clip0_20_9)">
<path d="M23.2537 23.6954C23.0329 23.0108 22.8342 22.3483 22.6133 21.6637C22.3925 20.9791 22.1937 20.3387 22.0171 19.6983C21.8404 19.08 21.6858 18.5058 21.5312 17.9758H21.4871C21.2883 18.9254 21.0454 19.875 20.7363 20.8246C20.405 21.8846 20.0737 22.9887 19.7204 24.0929C19.4112 25.2191 19.08 26.2571 18.7487 27.1846H24.3579C24.2254 26.7186 24.0487 26.1687 23.85 25.5923C23.6512 24.9983 23.4525 24.3579 23.2537 23.6954ZM43.6146 0.662476H9.38542C4.19583 0.662476 0 4.85831 0 10.0479V42.9521C0 48.1416 4.19583 52.3375 9.38542 52.3375H43.6146C48.8042 52.3375 53 48.1416 53 42.9521V10.0479C53 4.85831 48.8042 0.662476 43.6146 0.662476ZM32.4625 37.1662H27.8449C27.6925 37.1883 27.5379 37.0779 27.4937 36.9233L25.6829 31.6675H17.4679L15.7896 36.8571C15.7454 37.0558 15.5687 37.1883 15.37 37.1684H11.2183C10.9754 37.1684 10.9092 37.0337 10.9754 36.7709L18.0862 16.2975C18.1525 16.0766 18.2187 15.8337 18.3071 15.5687C18.3954 15.105 18.4396 14.6191 18.4396 14.1333C18.4175 14.0229 18.5058 13.9125 18.6163 13.8904H24.3358C24.5125 13.8904 24.6008 13.9566 24.6229 14.0671L32.6833 36.8129C32.7496 37.0536 32.6833 37.1662 32.4625 37.1662ZM39.9708 36.835C39.9708 37.0779 39.8847 37.1883 39.686 37.1883H35.3554C35.1346 37.1883 35.0242 37.0536 35.0242 36.835V19.8308C35.0242 19.61 35.1147 19.5216 35.3135 19.5216H39.686C39.8847 19.5216 39.9708 19.6321 39.9708 19.8308V36.835ZM39.5093 16.8937C39.2485 17.1586 38.934 17.3646 38.587 17.4979C38.2401 17.6312 37.8686 17.6888 37.4975 17.6666C36.7687 17.6887 36.0621 17.4016 35.5299 16.8937C35.0239 16.3405 34.7544 15.6113 34.779 14.8621C34.757 14.1112 35.044 13.4046 35.5718 12.8966C36.1062 12.3887 36.8129 12.1237 37.5417 12.1237C38.4051 12.1237 39.0632 12.3887 39.5512 12.8966C40.0371 13.4266 40.3021 14.1333 40.28 14.8621C40.3021 15.6129 40.0371 16.3416 39.5093 16.8937Z" fill="#011E30"/>
</g>
<defs>
<clipPath id="clip0_20_9">
<rect width="53" height="53" fill="white"/>
</clipPath>
</defs>
</svg>
