<svg width="53" height="43" viewBox="0 0 53 43" fill="none" xmlns="http://www.w3.org/2000/svg">
<path fill-rule="evenodd" clip-rule="evenodd" d="M19.1396 16.8722C18.3905 16.8722 17.6488 16.9919 16.9567 17.2244C16.2647 17.457 15.6359 17.7979 15.1062 18.2276C14.5765 18.6574 14.1564 19.1676 13.8697 19.729C13.583 20.2905 13.4355 20.8923 13.4355 21.5C13.4355 22.1078 13.583 22.7096 13.8697 23.2711C14.1564 23.8325 14.5765 24.3427 15.1062 24.7724C15.6359 25.2022 16.2647 25.5431 16.9567 25.7756C17.6488 26.0082 18.3905 26.1279 19.1396 26.1279H24.8437V21.5932C24.8429 21.5311 24.8429 21.469 24.8437 21.4069V16.8722H19.1396ZM24.8437 14.1847H19.1396C17.6265 14.1847 16.1754 13.697 15.1054 12.8289C14.0355 11.9609 13.4344 10.7835 13.4344 9.55589C13.4344 8.32827 14.0355 7.15092 15.1054 6.28286C16.1754 5.4148 17.6265 4.92712 19.1396 4.92712H24.8437V14.1847ZM28.1562 4.92712V14.1847H33.8604C35.3541 14.1608 36.7766 13.6627 37.8226 12.7972C38.8686 11.9317 39.4545 10.768 39.4545 9.55589C39.4545 8.3438 38.8686 7.18005 37.8226 6.31458C36.7766 5.44912 35.3541 4.95097 33.8604 4.92712H28.1562ZM33.8604 16.8704C32.3631 16.8702 30.9258 17.3477 29.8586 18.1998C28.7915 19.0518 28.18 20.2102 28.1562 21.4248V21.5735C28.1745 22.4855 28.5245 23.3727 29.1623 24.1238C29.8001 24.8749 30.6972 25.4563 31.741 25.7951C32.7848 26.1338 33.9286 26.2148 35.029 26.0278C36.1293 25.8409 37.137 25.3943 37.9254 24.7442C38.7139 24.094 39.2481 23.2694 39.4607 22.3738C39.6734 21.4782 39.5552 20.5516 39.1208 19.7103C38.6865 18.869 37.9555 18.1507 37.0196 17.6454C36.0836 17.1401 34.9846 16.8705 33.8604 16.8704ZM19.1396 28.8154C18.0109 28.8151 16.9074 29.0863 15.9687 29.5948C15.0301 30.1033 14.2983 30.8262 13.8661 31.6721C13.4338 32.5181 13.3205 33.449 13.5405 34.3472C13.7604 35.2454 14.3037 36.0705 15.1016 36.7181C15.8996 37.3658 16.9164 37.8069 18.0234 37.9857C19.1303 38.1644 20.2778 38.0729 21.3206 37.7225C22.3634 37.3722 23.2548 36.7788 23.8819 36.0174C24.509 35.256 24.8437 34.3608 24.8437 33.4451V28.8154H19.1396Z" fill="#011E30"/>
</svg>
