<svg width="515" height="424" viewBox="0 0 515 424" fill="none" xmlns="http://www.w3.org/2000/svg">
<g clip-path="url(#clip0_103_27)">
<path d="M419.124 42.614C422.414 29.1788 419.285 13.5102 408.655 4.67297C408.447 19.7146 402.931 34.1979 393.083 45.5602C389.269 49.9284 384.572 54.3894 384.387 60.188C384.272 63.796 386.032 67.2615 388.456 69.9336C390.881 72.6059 393.939 74.6056 396.962 76.5748L397.405 77.3588C407.134 67.5351 415.833 56.0491 419.124 42.614Z" fill="#F0F0F0"/>
<path d="M408.441 4.86927C412.518 15.567 413.124 27.2788 410.174 38.3412C409.581 40.7339 408.615 43.0181 407.311 45.1098C405.976 47.1062 404.13 48.7082 401.967 49.7492C399.97 50.7605 397.809 51.5634 396.092 53.0431C395.224 53.8136 394.529 54.7591 394.052 55.8174C393.575 56.8758 393.327 58.0231 393.323 59.1843C393.241 62.0773 394.201 64.8276 395.234 67.4845C396.38 70.4345 397.618 73.4804 397.353 76.7102C397.32 77.1015 397.929 77.1285 397.961 76.7378C398.422 71.1185 394.61 66.372 394.005 60.9215C393.723 58.3783 394.205 55.7345 396.083 53.8802C397.726 52.2587 399.953 51.4289 401.984 50.4224C404.109 49.4378 405.961 47.9472 407.378 46.0809C408.784 44.0625 409.836 41.8193 410.49 39.4474C412.047 34.1311 412.76 28.6027 412.602 23.0648C412.456 16.7434 411.231 10.4936 408.98 4.58568C408.841 4.22007 408.302 4.50606 408.441 4.86927Z" fill="white"/>
<path d="M411.333 34.8351C413.255 35.0787 415.2 34.6307 416.822 33.5711C418.443 32.5116 419.636 30.9094 420.187 29.0508C420.297 28.6743 419.718 28.4853 419.607 28.8623C419.098 30.594 417.987 32.0863 416.474 33.0699C414.962 34.0535 413.149 34.4635 411.361 34.226C410.972 34.1749 410.947 34.7842 411.333 34.8351Z" fill="white"/>
<path d="M403.047 49.37C400.594 46.2596 399.402 42.3379 399.709 38.3868C399.74 37.9954 399.131 37.9683 399.101 38.3592C398.789 42.4714 400.038 46.5501 402.598 49.7811C402.842 50.089 403.29 49.6761 403.047 49.37Z" fill="white"/>
<path d="M411.722 17.0816C410.959 17.1424 410.193 17.0126 409.493 16.7037C408.792 16.3949 408.179 15.9167 407.709 15.3121C407.469 15.0013 407.021 15.4146 407.259 15.7233C407.782 16.3888 408.46 16.9161 409.233 17.259C410.006 17.602 410.851 17.7502 411.695 17.6907C411.775 17.6918 411.852 17.6623 411.911 17.6083C411.97 17.5543 412.007 17.4798 412.013 17.4C412.016 17.3193 411.987 17.2406 411.933 17.181C411.879 17.1214 411.803 17.0857 411.722 17.0816Z" fill="white"/>
<path d="M362.681 13.3705C362.826 13.5689 362.97 13.7672 363.113 13.9704C365.042 16.6465 366.75 19.4751 368.221 22.4282C368.338 22.6547 368.454 22.886 368.564 23.1154C372.032 30.2679 374.144 38.0027 374.791 45.9268C375.046 49.0802 375.061 52.2484 374.835 55.404C374.524 59.7621 373.84 64.4625 374.952 68.5488C375.063 68.9764 375.2 69.3967 375.364 69.8073L396.415 77.8401C396.472 77.8343 396.528 77.8334 396.585 77.8277L397.411 78.1869C397.434 78.025 397.454 77.8565 397.477 77.6946C397.491 77.6007 397.5 77.505 397.514 77.4111C397.522 77.348 397.529 77.2847 397.539 77.2282C397.542 77.2072 397.544 77.1861 397.545 77.1698C397.556 77.1133 397.56 77.0596 397.568 77.0079C397.685 76.0666 397.795 75.1229 397.898 74.1767C397.9 74.1719 397.9 74.1719 397.897 74.1653C398.755 66.9631 398.757 59.6845 397.902 52.4819C397.874 52.2673 397.847 52.048 397.809 51.8297C397.367 48.617 396.663 45.4458 395.704 42.3479C395.174 40.6533 394.558 38.9866 393.86 37.3543C392.046 33.1402 389.582 29.2378 386.557 25.7903C380.526 18.9185 372.367 14.054 363.369 13.4128C363.139 13.3965 362.913 13.3819 362.681 13.3705Z" fill="#F0F0F0"/>
<path d="M362.627 13.6561C372.316 19.7403 379.844 28.7261 384.142 39.3371C385.107 41.605 385.71 44.0111 385.927 46.4668C386.061 48.8657 385.551 51.257 384.45 53.392C383.464 55.4034 382.222 57.3464 381.741 59.5628C381.511 60.701 381.525 61.8749 381.78 63.0075C382.036 64.1401 382.528 65.2059 383.224 66.1348C384.897 68.4947 387.318 70.1118 389.741 71.6109C392.43 73.2753 395.25 74.9614 396.981 77.7C397.191 78.0318 397.693 77.6866 397.484 77.3553C394.472 72.5907 388.573 71.0986 384.812 67.1112C383.057 65.2506 381.852 62.8493 382.237 60.2367C382.573 57.952 383.852 55.9473 384.869 53.9194C385.973 51.8523 386.555 49.546 386.564 47.2018C386.473 44.743 385.964 42.3177 385.06 40.0298C383.105 34.8464 380.349 30.0029 376.892 25.6766C372.974 20.7171 368.237 16.4651 362.887 13.1046C362.556 12.8968 362.298 13.4495 362.627 13.6561Z" fill="white"/>
<path d="M382.959 35.8389C384.639 34.8755 385.923 33.3454 386.581 31.5219C387.238 29.6985 387.227 27.7004 386.549 25.8845C386.41 25.5175 385.834 25.7157 385.973 26.0831C386.608 27.7729 386.618 29.6342 386.002 31.3309C385.386 33.0277 384.185 34.4482 382.614 35.336C382.273 35.5293 382.62 36.0312 382.959 35.8389Z" fill="white"/>
<path d="M385.085 52.4382C381.255 51.4333 377.945 49.0205 375.814 45.6808C375.603 45.3497 375.101 45.6948 375.311 46.0255C377.536 49.4967 380.986 52.0006 384.973 53.0375C385.353 53.1361 385.463 52.5362 385.085 52.4382Z" fill="white"/>
<path d="M372.592 21.4292C372.019 21.9377 371.329 22.2957 370.584 22.4713C369.839 22.6469 369.062 22.6345 368.323 22.4352C367.945 22.3318 367.835 22.9318 368.212 23.0345C369.029 23.2509 369.887 23.2636 370.711 23.0714C371.534 22.8792 372.298 22.4881 372.936 21.9322C373.001 21.8848 373.045 21.8146 373.059 21.7359C373.074 21.6572 373.058 21.5758 373.015 21.5084C372.969 21.442 372.899 21.3965 372.82 21.3817C372.741 21.3669 372.659 21.3839 372.592 21.4292Z" fill="white"/>
<path d="M334.846 316.853C264.268 316.853 206.848 259.373 206.848 188.72C206.848 118.068 264.268 60.588 334.846 60.588C342.308 60.587 349.756 61.2331 357.106 62.5188C357.198 62.5347 357.285 62.5685 357.364 62.6183C357.442 62.668 357.51 62.7329 357.564 62.809C357.618 62.8852 357.655 62.9711 357.676 63.062C357.696 63.1529 357.698 63.2469 357.682 63.3386C357.666 63.4303 357.632 63.5179 357.582 63.5965C357.532 63.675 357.467 63.7429 357.391 63.7963C357.315 63.8497 357.229 63.8875 357.138 63.9076C357.047 63.9276 356.953 63.9296 356.862 63.9133C349.592 62.6419 342.226 62.003 334.846 62.0038C265.048 62.0038 208.262 118.848 208.262 188.72C208.262 258.592 265.048 315.437 334.846 315.437C404.645 315.437 461.43 258.592 461.43 188.72C461.462 157.139 449.681 126.69 428.409 103.368C428.284 103.229 428.219 103.046 428.228 102.859C428.237 102.673 428.319 102.497 428.458 102.371C428.596 102.245 428.778 102.179 428.965 102.187C429.151 102.195 429.327 102.277 429.454 102.414C450.964 125.997 462.876 156.786 462.845 188.72C462.845 259.373 405.425 316.853 334.846 316.853Z" fill="#E4E4E4"/>
<path d="M391.284 104.533C405.27 104.533 416.609 93.1828 416.609 79.1818C416.609 65.1807 405.27 53.8306 391.284 53.8306C377.298 53.8306 365.959 65.1807 365.959 79.1818C365.959 93.1828 377.298 104.533 391.284 104.533Z" fill="#6C63FF"/>
<path d="M387.829 92.3759C387.392 92.3759 386.96 92.2739 386.569 92.0781C386.178 91.8822 385.838 91.5979 385.576 91.2476L378.667 82.0259C378.445 81.7297 378.283 81.3925 378.192 81.0338C378.1 80.6751 378.079 80.3018 378.132 79.9352C378.184 79.5686 378.308 79.2159 378.497 78.8973C378.685 78.5786 378.934 78.3003 379.23 78.0781C379.526 77.8559 379.863 77.6942 380.221 77.6023C380.58 77.5105 380.953 77.4901 381.319 77.5425C381.685 77.5949 382.037 77.719 382.356 77.9077C382.674 78.0963 382.952 78.3459 383.174 78.6422L387.694 84.6748L399.303 67.243C399.719 66.6232 400.363 66.1937 401.094 66.0484C401.826 65.9032 402.585 66.0542 403.205 66.4682C403.825 66.8822 404.256 67.5255 404.404 68.2572C404.551 68.9889 404.403 69.7492 403.991 70.3715L390.173 91.12C389.923 91.4953 389.587 91.8051 389.193 92.0234C388.799 92.2418 388.358 92.3623 387.907 92.3749C387.881 92.3754 387.855 92.3759 387.829 92.3759Z" fill="white"/>
<path d="M331.553 168.836L292.501 60.0784L293.491 59.7221L286.309 39.7186L285.318 40.0754L273.328 6.68346C272.88 5.43631 272.191 4.28966 271.3 3.30899C270.41 2.32832 269.335 1.53283 268.138 0.967942C266.94 0.403055 265.643 0.0798281 264.321 0.016726C262.998 -0.046376 261.676 0.15188 260.431 0.60017L189.832 26.0038C188.586 26.4521 187.44 27.1416 186.461 28.033C185.481 28.9244 184.686 30.0003 184.122 31.1991C183.558 32.3979 183.235 33.6963 183.172 35.0201C183.109 36.3439 183.307 37.6671 183.754 38.9143L192.115 62.1971L190.55 62.8003L195.887 76.6734L197.14 76.1905L198.248 79.2764L196.915 79.7903L202.252 93.6634L203.272 93.2698L241.98 201.067C242.426 202.315 243.114 203.464 244.004 204.446C244.894 205.428 245.969 206.224 247.167 206.789C248.365 207.355 249.663 207.678 250.986 207.739C252.309 207.801 253.632 207.601 254.878 207.15L325.476 181.747C327.99 180.839 330.042 178.97 331.181 176.549C332.321 174.129 332.454 171.355 331.553 168.836Z" fill="#3F3D56"/>
<path d="M251.165 203.566C250.17 203.564 249.201 203.255 248.388 202.682C247.575 202.109 246.958 201.299 246.621 200.363L187.781 36.4992C187.348 35.2923 187.412 33.9625 187.958 32.8024C188.504 31.6423 189.488 30.7468 190.693 30.3129L205.714 24.9078L205.692 25.4339C205.653 26.3472 205.84 27.2559 206.235 28.0801C206.63 28.9042 207.221 29.6185 207.957 30.16C208.692 30.7014 209.55 31.0535 210.453 31.1851C211.357 31.3167 212.279 31.2239 213.138 30.9147L246.475 18.9193C247.28 18.5502 247.986 17.9967 248.538 17.3035C249.089 16.6104 249.47 15.797 249.649 14.9293C249.826 14.076 249.799 13.1929 249.57 12.352C249.342 11.5111 248.918 10.7363 248.333 10.0907L247.981 9.69905L263.497 4.1156C264.703 3.68357 266.03 3.74784 267.189 4.29435C268.347 4.84085 269.242 5.82497 269.677 7.03089L325.816 163.371C326.961 166.573 326.791 170.1 325.343 173.178C323.894 176.255 321.285 178.631 318.089 179.786L252.802 203.278C252.277 203.468 251.723 203.565 251.165 203.566Z" fill="white"/>
<path d="M245.413 87.3404C255.958 87.3404 264.506 78.7829 264.506 68.2267C264.506 57.6706 255.958 49.1131 245.413 49.1131C234.867 49.1131 226.319 57.6706 226.319 68.2267C226.319 78.7829 234.867 87.3404 245.413 87.3404Z" fill="#6C63FF"/>
<path d="M292.726 96.0226L226.604 119.816C226.398 119.89 226.178 119.924 225.959 119.914C225.74 119.904 225.524 119.85 225.325 119.757C225.127 119.663 224.948 119.531 224.8 119.369C224.653 119.206 224.538 119.016 224.464 118.809C224.39 118.602 224.357 118.383 224.367 118.163C224.378 117.943 224.432 117.728 224.526 117.529C224.619 117.33 224.752 117.152 224.914 117.004C225.077 116.857 225.267 116.743 225.474 116.669L291.597 92.8759C292.013 92.7273 292.471 92.75 292.871 92.9392C293.271 93.1284 293.58 93.4686 293.729 93.8852C293.879 94.3017 293.857 94.7607 293.669 95.1614C293.481 95.5621 293.142 95.8718 292.726 96.0226Z" fill="#E6E6E6"/>
<path d="M273.09 111.108L251.341 118.935C251.134 119.009 250.915 119.043 250.696 119.032C250.476 119.022 250.261 118.969 250.062 118.875C249.864 118.782 249.685 118.65 249.537 118.487C249.39 118.325 249.275 118.135 249.201 117.928C249.127 117.721 249.094 117.501 249.105 117.282C249.115 117.062 249.169 116.847 249.263 116.648C249.356 116.449 249.488 116.271 249.651 116.123C249.814 115.976 250.004 115.862 250.211 115.788L271.96 107.962C272.377 107.812 272.837 107.833 273.237 108.022C273.638 108.211 273.947 108.552 274.097 108.969C274.247 109.387 274.225 109.846 274.036 110.248C273.847 110.649 273.507 110.958 273.09 111.108Z" fill="#E6E6E6"/>
<path d="M278.263 125.515L256.514 133.341C256.308 133.415 256.089 133.448 255.869 133.438C255.65 133.427 255.436 133.374 255.237 133.28C255.039 133.187 254.861 133.055 254.713 132.892C254.566 132.73 254.451 132.54 254.377 132.333C254.303 132.127 254.27 131.907 254.281 131.688C254.291 131.469 254.345 131.254 254.438 131.055C254.532 130.856 254.663 130.678 254.826 130.531C254.988 130.383 255.178 130.269 255.384 130.194L277.133 122.368C277.55 122.218 278.01 122.24 278.41 122.429C278.811 122.618 279.12 122.959 279.27 123.376C279.42 123.793 279.398 124.253 279.209 124.654C279.021 125.055 278.68 125.365 278.263 125.515Z" fill="#E6E6E6"/>
<path d="M280.913 132.894L259.164 140.72C258.957 140.795 258.738 140.828 258.518 140.818C258.299 140.808 258.084 140.755 257.885 140.662C257.686 140.568 257.507 140.436 257.359 140.274C257.212 140.111 257.097 139.921 257.023 139.714C256.949 139.507 256.916 139.287 256.926 139.068C256.937 138.848 256.991 138.632 257.085 138.434C257.179 138.235 257.311 138.057 257.474 137.909C257.636 137.761 257.827 137.647 258.034 137.573L279.783 129.747C279.99 129.672 280.209 129.639 280.428 129.649C280.648 129.659 280.863 129.713 281.062 129.806C281.261 129.9 281.439 130.031 281.587 130.194C281.735 130.357 281.849 130.547 281.923 130.754C281.998 130.961 282.03 131.18 282.02 131.4C282.009 131.619 281.956 131.835 281.862 132.034C281.768 132.232 281.636 132.411 281.473 132.558C281.31 132.706 281.12 132.82 280.913 132.894Z" fill="#E6E6E6"/>
<path d="M287.838 113.821L241.693 130.426C241.487 130.501 241.268 130.534 241.048 130.524C240.829 130.514 240.613 130.461 240.415 130.367C240.216 130.274 240.037 130.142 239.89 129.979C239.742 129.817 239.627 129.626 239.553 129.419C239.479 129.213 239.446 128.993 239.457 128.773C239.467 128.554 239.521 128.338 239.615 128.14C239.709 127.941 239.841 127.762 240.004 127.615C240.166 127.467 240.357 127.353 240.563 127.279L286.708 110.675C286.915 110.6 287.134 110.567 287.354 110.577C287.573 110.587 287.788 110.64 287.987 110.734C288.186 110.827 288.364 110.959 288.512 111.122C288.66 111.284 288.774 111.474 288.849 111.681C288.923 111.888 288.956 112.108 288.945 112.327C288.935 112.547 288.881 112.762 288.787 112.961C288.693 113.16 288.561 113.338 288.398 113.486C288.236 113.634 288.045 113.748 287.838 113.821Z" fill="#E6E6E6"/>
<path d="M278.544 150.807L270.647 153.648C269.938 153.903 269.157 153.865 268.476 153.544C267.795 153.222 267.27 152.643 267.015 151.934C266.76 151.225 266.798 150.443 267.118 149.761C267.439 149.079 268.017 148.553 268.725 148.297L276.622 145.456C277.331 145.201 278.112 145.239 278.793 145.56C279.474 145.882 279.999 146.461 280.254 147.17C280.508 147.879 280.471 148.661 280.151 149.343C279.83 150.025 279.252 150.551 278.544 150.807Z" fill="#6C63FF"/>
<path d="M216.312 25.4377C216.918 25.4377 217.41 24.9455 217.41 24.3383C217.41 23.7312 216.918 23.239 216.312 23.239C215.705 23.239 215.214 23.7312 215.214 24.3383C215.214 24.9455 215.705 25.4377 216.312 25.4377Z" fill="white"/>
<path d="M90.0112 86.17C102.32 71.6659 122.292 62.5253 140.704 67.2643C124.121 79.6231 112.439 97.4555 107.725 117.606C105.935 125.384 104.754 134.222 98.4456 139.103C94.5204 142.141 89.2425 142.971 84.3122 142.42C79.3816 141.868 74.6888 140.067 70.0591 138.282L68.8282 138.419C71.9245 119.642 77.7024 100.674 90.0112 86.17Z" fill="#F0F0F0"/>
<path d="M140.657 67.6609C125.457 71.7357 111.926 80.5014 101.985 92.713C99.7987 95.3038 98.0337 98.2235 96.7554 101.365C95.6089 104.465 95.3126 107.815 95.8972 111.069C96.3815 114.113 97.229 117.171 96.9656 120.281C96.8071 121.87 96.3148 123.408 95.5209 124.794C94.7269 126.18 93.6494 127.382 92.3588 128.321C89.2039 130.746 85.3668 131.892 81.5755 132.882C77.366 133.981 72.9763 135.055 69.5931 137.955C69.1832 138.306 68.6626 137.649 69.0719 137.298C74.958 132.253 83.3175 132.681 89.8748 128.962C92.9346 127.226 95.4904 124.557 96.0409 120.966C96.5223 117.825 95.651 114.671 95.1341 111.593C94.5172 108.427 94.684 105.159 95.62 102.073C96.7344 98.8767 98.3841 95.8939 100.498 93.2519C105.163 87.2279 110.745 81.9756 117.04 77.6875C124.197 72.7536 132.145 69.0816 140.539 66.8305C141.058 66.6914 141.174 67.5227 140.657 67.6609Z" fill="white"/>
<path d="M104.955 88.5923C103.135 86.6446 102.065 84.1127 101.938 81.4486C101.81 78.7845 102.633 76.1617 104.258 74.0487C104.589 73.6223 105.266 74.1163 104.936 74.5433C103.418 76.5081 102.652 78.9513 102.776 81.4319C102.9 83.9124 103.905 86.267 105.611 88.0705C105.981 88.4629 105.323 88.9824 104.955 88.5923Z" fill="white"/>
<path d="M95.4486 109.558C100.89 109.788 106.219 107.956 110.371 104.428C110.782 104.078 111.303 104.735 110.893 105.085C106.564 108.748 101.015 110.643 95.3533 110.391C94.8136 110.366 94.9119 109.533 95.4486 109.558Z" fill="white"/>
<path d="M124.412 73.8448C124.959 74.7453 125.722 75.4956 126.63 76.0283C127.539 76.561 128.566 76.8595 129.618 76.8968C130.158 76.9144 130.059 77.7476 129.523 77.7302C128.36 77.6835 127.227 77.3525 126.221 76.7662C125.216 76.1798 124.37 75.356 123.756 74.3666C123.69 74.2782 123.661 74.1681 123.673 74.0586C123.686 73.9492 123.739 73.8486 123.823 73.7773C123.91 73.7087 124.021 73.6773 124.131 73.6899C124.242 73.7025 124.342 73.7582 124.412 73.8448Z" fill="white"/>
<path d="M168.083 125.581C167.745 125.58 167.408 125.578 167.067 125.583C162.531 125.588 158.004 125.962 153.53 126.702C153.183 126.753 152.832 126.811 152.488 126.872C141.726 128.769 131.41 132.648 122.064 138.314C118.347 140.572 114.807 143.11 111.474 145.906C106.872 149.767 102.189 154.32 96.742 156.374C96.1761 156.594 95.5971 156.78 95.0083 156.929L69.0903 139.912C69.0508 139.843 69.0071 139.781 68.9673 139.712L67.9014 139.08C68.0633 138.924 68.2344 138.766 68.3962 138.609C68.4897 138.518 68.589 138.431 68.6825 138.34C68.7466 138.281 68.8111 138.221 68.8656 138.164C68.8869 138.144 68.9084 138.125 68.9258 138.111C68.9803 138.053 69.037 138.006 69.0877 137.954C70.042 137.066 71.0043 136.182 71.9745 135.304C71.9784 135.298 71.9784 135.298 71.988 135.295C79.3974 128.621 87.4285 122.507 96.1312 117.808C96.3931 117.667 96.6586 117.52 96.9323 117.386C100.867 115.29 104.966 113.519 109.189 112.091C111.503 111.316 113.856 110.66 116.237 110.123C122.392 108.75 128.725 108.354 135.003 108.95C147.518 110.14 159.513 115.323 167.481 124.847C167.685 125.091 167.883 125.331 168.083 125.581Z" fill="#F0F0F0"/>
<path d="M167.809 125.872C153.221 119.964 137.145 118.808 121.864 122.567C118.56 123.318 115.394 124.585 112.485 126.323C109.705 128.107 107.453 130.604 105.963 133.554C104.519 136.277 103.356 139.229 101.276 141.553C100.193 142.726 98.8749 143.658 97.4075 144.286C95.9402 144.914 94.3568 145.224 92.7612 145.196C88.7838 145.231 85.0311 143.833 81.4087 142.339C77.3867 140.679 73.2354 138.891 68.7902 139.167C68.2516 139.201 68.2312 138.362 68.769 138.329C76.5029 137.848 82.9202 143.228 90.3929 144.21C93.8797 144.669 97.5257 144.078 100.125 141.542C102.398 139.325 103.6 136.282 105.038 133.512C106.45 130.613 108.549 128.104 111.152 126.204C113.964 124.324 117.075 122.936 120.352 122.101C127.7 120.103 135.316 119.273 142.921 119.643C151.603 120.018 160.157 121.876 168.213 125.137C168.712 125.339 168.304 126.073 167.809 125.872Z" fill="white"/>
<path d="M126.713 121.067C126.431 118.414 127.1 115.748 128.601 113.544C130.101 111.34 132.335 109.742 134.904 109.035C135.425 108.893 135.668 109.696 135.147 109.838C132.754 110.492 130.673 111.981 129.28 114.036C127.887 116.091 127.274 118.577 127.551 121.045C127.61 121.582 126.772 121.6 126.713 121.067Z" fill="white"/>
<path d="M106.514 132.077C110.72 135.54 116.076 137.289 121.514 136.975C122.052 136.944 122.073 137.782 121.535 137.814C115.876 138.13 110.306 136.298 105.936 132.685C105.52 132.34 106.1 131.734 106.514 132.077Z" fill="white"/>
<path d="M151.118 121.018C151.014 122.067 151.171 123.126 151.576 124.099C151.981 125.072 152.622 125.929 153.439 126.593C153.86 126.932 153.28 127.538 152.862 127.201C151.962 126.463 151.256 125.515 150.806 124.441C150.356 123.367 150.176 122.199 150.281 121.039C150.281 120.929 150.324 120.824 150.4 120.744C150.476 120.664 150.579 120.616 150.689 120.61C150.8 120.607 150.907 120.649 150.987 120.726C151.068 120.802 151.115 120.907 151.118 121.018Z" fill="white"/>
<path d="M459.415 364.94C472.836 368.234 488.488 365.102 497.316 354.459C482.29 354.251 467.822 348.73 456.471 338.871C452.108 335.053 447.651 330.352 441.859 330.167C438.255 330.051 434.793 331.813 432.123 334.24C429.454 336.667 427.456 339.729 425.489 342.754L424.706 343.198C434.519 352.937 445.993 361.645 459.415 364.94Z" fill="#F0F0F0"/>
<path d="M497.12 354.246C486.433 358.327 474.734 358.934 463.683 355.98C461.293 355.387 459.011 354.42 456.921 353.115C454.927 351.778 453.327 349.93 452.287 347.765C451.277 345.765 450.474 343.603 448.996 341.884C448.227 341.015 447.282 340.319 446.225 339.842C445.168 339.364 444.022 339.115 442.862 339.112C439.972 339.029 437.224 339.991 434.57 341.024C431.623 342.172 428.58 343.411 425.354 343.146C424.963 343.113 424.936 343.722 425.326 343.755C430.94 344.216 435.681 340.4 441.126 339.794C443.667 339.512 446.308 339.994 448.16 341.875C449.78 343.519 450.609 345.748 451.614 347.782C452.598 349.909 454.087 351.763 455.951 353.182C457.968 354.589 460.208 355.642 462.578 356.297C467.888 357.856 473.411 358.569 478.943 358.411C485.258 358.265 491.501 357.039 497.403 354.785C497.768 354.646 497.483 354.107 497.12 354.246Z" fill="white"/>
<path d="M467.185 357.141C466.942 359.064 467.389 361.012 468.448 362.635C469.506 364.258 471.107 365.452 472.963 366.004C473.339 366.114 473.528 365.534 473.152 365.424C471.422 364.914 469.931 363.801 468.949 362.287C467.966 360.774 467.556 358.958 467.794 357.169C467.845 356.78 467.236 356.754 467.185 357.141Z" fill="white"/>
<path d="M452.665 348.846C455.773 346.391 459.69 345.197 463.637 345.504C464.028 345.535 464.055 344.926 463.665 344.895C459.557 344.583 455.482 345.833 452.255 348.396C451.947 348.641 452.36 349.089 452.665 348.846Z" fill="white"/>
<path d="M484.92 357.531C484.859 356.767 484.989 356 485.298 355.299C485.606 354.597 486.084 353.984 486.688 353.513C486.998 353.273 486.585 352.824 486.277 353.063C485.612 353.586 485.085 354.264 484.743 355.038C484.4 355.812 484.252 356.658 484.312 357.503C484.311 357.583 484.34 357.66 484.394 357.72C484.448 357.779 484.522 357.815 484.602 357.821C484.683 357.824 484.761 357.796 484.821 357.741C484.88 357.687 484.916 357.611 484.92 357.531Z" fill="white"/>
<path d="M488.627 308.438C488.429 308.583 488.231 308.727 488.028 308.87C485.355 310.801 482.529 312.511 479.579 313.983C479.353 314.101 479.122 314.216 478.893 314.327C471.748 317.799 464.021 319.913 456.105 320.561C452.955 320.816 449.79 320.83 446.638 320.605C442.284 320.293 437.589 319.608 433.507 320.721C433.08 320.832 432.66 320.97 432.25 321.134L424.225 342.208C424.231 342.265 424.232 342.32 424.238 342.377L423.879 343.204C424.041 343.227 424.209 343.247 424.371 343.27C424.464 343.284 424.56 343.293 424.654 343.307C424.717 343.315 424.78 343.322 424.837 343.333C424.858 343.335 424.879 343.338 424.895 343.338C424.951 343.349 425.005 343.353 425.057 343.361C425.997 343.478 426.94 343.588 427.885 343.692C427.89 343.694 427.89 343.694 427.896 343.691C435.091 344.55 442.362 344.552 449.557 343.696C449.771 343.667 449.99 343.641 450.208 343.603C453.418 343.16 456.586 342.455 459.68 341.496C461.373 340.965 463.038 340.348 464.669 339.649C468.878 337.834 472.777 335.367 476.221 332.339C483.085 326.301 487.945 318.134 488.585 309.127C488.601 308.896 488.616 308.67 488.627 308.438Z" fill="#F0F0F0"/>
<path d="M488.342 308.383C482.264 318.083 473.288 325.619 462.688 329.921C460.422 330.887 458.019 331.491 455.566 331.708C453.169 331.842 450.781 331.332 448.648 330.23C446.638 329.242 444.697 327.999 442.483 327.517C441.346 327.288 440.174 327.301 439.042 327.557C437.911 327.813 436.846 328.305 435.918 329.002C433.561 330.677 431.945 333.101 430.448 335.526C428.785 338.218 427.101 341.041 424.365 342.774C424.034 342.984 424.379 343.486 424.71 343.277C429.469 340.262 430.96 334.357 434.943 330.592C436.802 328.836 439.2 327.629 441.81 328.014C444.092 328.351 446.095 329.631 448.121 330.649C450.186 331.754 452.49 332.337 454.831 332.346C457.288 332.254 459.71 331.745 461.996 330.84C467.174 328.884 472.012 326.125 476.334 322.664C481.288 318.742 485.536 314 488.893 308.644C489.101 308.312 488.548 308.054 488.342 308.383Z" fill="white"/>
<path d="M466.182 328.737C467.145 330.419 468.673 331.704 470.495 332.362C472.316 333.021 474.312 333.009 476.126 332.331C476.493 332.192 476.295 331.615 475.928 331.754C474.24 332.389 472.381 332.4 470.686 331.783C468.991 331.167 467.572 329.964 466.685 328.392C466.492 328.051 465.99 328.397 466.182 328.737Z" fill="white"/>
<path d="M449.601 330.865C450.604 327.031 453.015 323.717 456.351 321.584C456.682 321.373 456.337 320.87 456.007 321.081C452.539 323.308 450.038 326.762 449.002 330.753C448.903 331.134 449.503 331.243 449.601 330.865Z" fill="white"/>
<path d="M480.577 318.359C480.069 317.786 479.711 317.095 479.536 316.349C479.361 315.603 479.373 314.826 479.572 314.086C479.675 313.707 479.076 313.597 478.973 313.974C478.757 314.792 478.745 315.651 478.937 316.476C479.129 317.3 479.519 318.065 480.075 318.704C480.122 318.768 480.192 318.812 480.271 318.827C480.349 318.842 480.431 318.826 480.498 318.783C480.564 318.737 480.61 318.666 480.625 318.587C480.639 318.508 480.622 318.426 480.577 318.359Z" fill="white"/>
<path d="M513.193 235.807L492.727 270.283L493.505 270.693L486.575 283.846L485.132 283.082L480.578 290.748L481.709 291.4L474.284 304.27L472.997 303.526L406.219 416.028C404.468 418.972 401.621 421.1 398.304 421.946C394.987 422.791 391.47 422.285 388.525 420.537L264.381 346.695C261.44 344.942 259.313 342.092 258.469 338.772C257.624 335.451 258.13 331.93 259.876 328.983L366.85 148.762C368.602 145.818 371.448 143.69 374.766 142.844C378.083 141.999 381.599 142.505 384.544 144.253L508.688 218.095C511.628 219.849 513.754 222.699 514.598 226.019C515.442 229.339 514.937 232.859 513.193 235.807Z" fill="#3F3D56"/>
<path d="M392.95 413.581L268.368 339.479C267.462 338.938 266.807 338.06 266.546 337.036C266.286 336.013 266.442 334.928 266.98 334.019L374.664 152.599C375.204 151.692 376.081 151.036 377.104 150.775C378.126 150.515 379.21 150.671 380.118 151.209L504.699 225.311C505.606 225.852 506.261 226.73 506.521 227.754C506.782 228.777 506.626 229.863 506.088 230.771L398.404 412.191C397.864 413.098 396.986 413.754 395.964 414.015C394.941 414.275 393.857 414.119 392.95 413.581Z" fill="white"/>
<path d="M444.124 185.393C444.731 185.393 445.223 184.901 445.223 184.294C445.223 183.686 444.731 183.194 444.124 183.194C443.518 183.194 443.026 183.686 443.026 184.294C443.026 184.901 443.518 185.393 444.124 185.393Z" fill="white"/>
<path d="M437.328 315.351L333.333 253.494C333.007 253.302 332.722 253.047 332.494 252.744C332.267 252.441 332.101 252.097 332.007 251.729C331.913 251.362 331.892 250.98 331.946 250.605C332 250.23 332.127 249.869 332.32 249.544C332.514 249.218 332.77 248.934 333.073 248.707C333.376 248.48 333.721 248.316 334.088 248.223C334.455 248.13 334.837 248.111 335.212 248.166C335.586 248.222 335.946 248.35 336.271 248.545L440.265 310.402C440.591 310.594 440.876 310.849 441.104 311.152C441.331 311.455 441.497 311.8 441.591 312.167C441.685 312.534 441.706 312.916 441.652 313.291C441.598 313.666 441.471 314.027 441.278 314.352C441.085 314.678 440.829 314.962 440.525 315.189C440.222 315.416 439.877 315.58 439.51 315.673C439.143 315.766 438.761 315.785 438.387 315.73C438.012 315.674 437.652 315.546 437.328 315.351Z" fill="#E6E6E6"/>
<path d="M395.803 305.766L361.597 285.42C361.272 285.227 360.988 284.971 360.762 284.669C360.536 284.366 360.372 284.022 360.279 283.655C360.185 283.289 360.165 282.908 360.219 282.533C360.273 282.159 360.4 281.799 360.593 281.474C360.786 281.149 361.041 280.866 361.343 280.639C361.646 280.413 361.99 280.248 362.356 280.155C362.722 280.062 363.103 280.042 363.477 280.096C363.85 280.15 364.21 280.277 364.534 280.47L398.741 300.817C399.066 301.01 399.349 301.265 399.575 301.568C399.801 301.871 399.966 302.215 400.059 302.581C400.152 302.948 400.172 303.329 400.118 303.703C400.064 304.077 399.937 304.437 399.744 304.762C399.551 305.087 399.296 305.371 398.994 305.597C398.692 305.823 398.348 305.988 397.982 306.081C397.616 306.174 397.235 306.194 396.861 306.14C396.487 306.086 396.128 305.959 395.803 305.766Z" fill="#E6E6E6"/>
<path d="M382.354 328.424L348.148 308.078C347.492 307.688 347.018 307.053 346.83 306.313C346.642 305.574 346.755 304.789 347.145 304.133C347.535 303.477 348.168 303.002 348.907 302.814C349.646 302.626 350.43 302.739 351.085 303.129L385.292 323.475C385.617 323.668 385.9 323.923 386.126 324.226C386.352 324.529 386.517 324.873 386.61 325.24C386.703 325.606 386.723 325.987 386.669 326.361C386.615 326.735 386.488 327.095 386.295 327.42C386.102 327.745 385.847 328.029 385.545 328.255C385.243 328.481 384.898 328.646 384.533 328.739C384.167 328.832 383.786 328.853 383.412 328.799C383.038 328.745 382.679 328.617 382.354 328.424Z" fill="#E6E6E6"/>
<path d="M375.466 340.029L341.259 319.683C340.934 319.49 340.649 319.236 340.422 318.933C340.195 318.63 340.03 318.285 339.937 317.918C339.843 317.552 339.822 317.17 339.876 316.795C339.93 316.421 340.057 316.06 340.25 315.735C340.443 315.409 340.699 315.125 341.002 314.899C341.305 314.672 341.65 314.508 342.016 314.415C342.383 314.322 342.764 314.302 343.138 314.357C343.512 314.412 343.872 314.54 344.197 314.734L378.403 335.08C378.73 335.273 379.015 335.528 379.242 335.83C379.47 336.133 379.636 336.478 379.73 336.845C379.824 337.212 379.845 337.594 379.791 337.969C379.737 338.345 379.61 338.705 379.417 339.031C379.223 339.357 378.967 339.641 378.664 339.868C378.361 340.095 378.015 340.259 377.648 340.352C377.281 340.444 376.9 340.464 376.525 340.408C376.151 340.353 375.791 340.224 375.466 340.029Z" fill="#E6E6E6"/>
<path d="M408.357 328.347L335.782 285.179C335.13 284.787 334.659 284.153 334.473 283.415C334.287 282.677 334.401 281.895 334.789 281.24C335.178 280.585 335.81 280.112 336.546 279.922C337.283 279.733 338.065 279.844 338.72 280.23L411.295 323.398C411.621 323.59 411.906 323.845 412.134 324.148C412.362 324.451 412.527 324.796 412.621 325.163C412.715 325.53 412.736 325.912 412.682 326.287C412.629 326.662 412.502 327.023 412.308 327.349C412.115 327.675 411.859 327.959 411.556 328.186C411.252 328.412 410.907 328.577 410.54 328.669C410.173 328.762 409.791 328.781 409.417 328.726C409.042 328.671 408.682 328.542 408.357 328.347Z" fill="#E6E6E6"/>
<path d="M394.525 383.516L382.104 376.128C380.991 375.464 380.187 374.385 379.868 373.128C379.549 371.871 379.741 370.538 380.403 369.423C381.065 368.308 382.142 367.501 383.398 367.181C384.653 366.86 385.985 367.051 387.1 367.713L399.52 375.1C400.635 375.763 401.441 376.843 401.761 378.101C402.081 379.359 401.888 380.692 401.226 381.808C400.563 382.924 399.485 383.731 398.228 384.052C396.972 384.372 395.639 384.179 394.525 383.516Z" fill="#6C63FF"/>
<path d="M417.698 263.567C431.758 263.567 443.156 252.157 443.156 238.082C443.156 224.007 431.758 212.597 417.698 212.597C403.638 212.597 392.239 224.007 392.239 238.082C392.239 252.157 403.638 263.567 417.698 263.567Z" fill="#6C63FF"/>
<path d="M0.299844 341.643H344.821V141.977C344.819 140.481 344.225 139.047 343.168 137.989C342.111 136.932 340.678 136.336 339.184 136.335H5.93671C4.44226 136.336 3.00951 136.932 1.95276 137.989C0.896009 139.047 0.30157 140.481 0.299844 141.977V341.643Z" fill="#CACACA"/>
<path d="M334.176 144.139H10.9443V327.836H334.176V144.139Z" fill="white"/>
<path d="M-4.76791e-06 336.24V360.879C-1.5912e-05 361.901 0.200949 362.912 0.591417 363.856C0.981885 364.8 1.55421 365.657 2.27571 366.379C2.99721 367.102 3.85377 367.675 4.79646 368.065C5.73915 368.456 6.74952 368.657 7.76989 368.657H134.93V417.283H133.241C133.108 417.283 132.977 417.309 132.854 417.36C132.732 417.411 132.621 417.485 132.527 417.579C132.433 417.673 132.359 417.784 132.308 417.907C132.257 418.029 132.231 418.161 132.231 418.294V421.676C132.231 421.808 132.257 421.94 132.308 422.062C132.359 422.185 132.433 422.296 132.527 422.39C132.621 422.484 132.732 422.558 132.854 422.609C132.977 422.66 133.108 422.686 133.241 422.686H212.18C212.312 422.686 212.444 422.66 212.566 422.609C212.689 422.558 212.8 422.484 212.894 422.39C212.987 422.296 213.062 422.185 213.112 422.062C213.163 421.94 213.189 421.808 213.189 421.676V418.294C213.189 418.161 213.163 418.029 213.112 417.907C213.062 417.784 212.987 417.673 212.894 417.579C212.8 417.485 212.689 417.411 212.566 417.36C212.444 417.309 212.312 417.283 212.18 417.283H210.491V368.658H337.651C338.671 368.658 339.681 368.456 340.624 368.065C341.567 367.675 342.423 367.102 343.145 366.379C343.866 365.657 344.439 364.8 344.829 363.856C345.22 362.912 345.421 361.901 345.421 360.879V336.24L-4.76791e-06 336.24Z" fill="#3F3D56"/>
<path d="M287.404 205.574H134.334C133.369 205.574 132.444 205.191 131.761 204.507C131.079 203.824 130.696 202.898 130.696 201.932C130.696 200.966 131.079 200.04 131.761 199.357C132.444 198.674 133.369 198.29 134.334 198.29H287.404C288.369 198.29 289.295 198.674 289.977 199.357C290.659 200.04 291.043 200.966 291.043 201.932C291.043 202.898 290.659 203.824 289.977 204.507C289.295 205.191 288.369 205.574 287.404 205.574Z" fill="#E6E6E6"/>
<path d="M236.044 222.016H185.695C184.73 222.016 183.804 221.632 183.122 220.949C182.439 220.266 182.056 219.34 182.056 218.374C182.056 217.408 182.439 216.481 183.122 215.798C183.804 215.115 184.73 214.731 185.695 214.731H236.044C237.009 214.731 237.934 215.115 238.617 215.798C239.299 216.481 239.682 217.408 239.682 218.374C239.682 219.34 239.299 220.266 238.617 220.949C237.934 221.632 237.009 222.016 236.044 222.016Z" fill="#E6E6E6"/>
<path d="M236.044 255.367H185.695C184.73 255.367 183.804 254.983 183.122 254.3C182.439 253.617 182.056 252.69 182.056 251.724C182.056 250.758 182.439 249.832 183.122 249.149C183.804 248.466 184.73 248.082 185.695 248.082H236.044C237.009 248.082 237.934 248.466 238.617 249.149C239.299 249.832 239.682 250.758 239.682 251.724C239.682 252.69 239.299 253.617 238.617 254.3C237.934 254.983 237.009 255.367 236.044 255.367Z" fill="#E6E6E6"/>
<path d="M236.044 272.449H185.695C185.217 272.449 184.744 272.354 184.302 272.171C183.861 271.988 183.46 271.72 183.122 271.382C182.784 271.044 182.516 270.642 182.333 270.2C182.15 269.758 182.056 269.285 182.056 268.806C182.056 268.328 182.15 267.854 182.333 267.413C182.516 266.971 182.784 266.569 183.122 266.231C183.46 265.893 183.861 265.624 184.302 265.441C184.744 265.258 185.217 265.164 185.695 265.164H236.044C236.522 265.164 236.995 265.258 237.436 265.441C237.878 265.624 238.279 265.893 238.616 266.231C238.954 266.569 239.222 266.971 239.405 267.413C239.588 267.854 239.682 268.328 239.682 268.806C239.682 269.285 239.588 269.758 239.405 270.2C239.222 270.642 238.954 271.044 238.616 271.382C238.279 271.72 237.878 271.988 237.436 272.171C236.995 272.354 236.522 272.449 236.044 272.449Z" fill="#E6E6E6"/>
<path d="M264.281 238.457H157.457C156.492 238.457 155.567 238.074 154.885 237.391C154.202 236.707 153.819 235.781 153.819 234.815C153.819 233.849 154.202 232.923 154.885 232.24C155.567 231.557 156.492 231.173 157.457 231.173H264.281C265.246 231.173 266.172 231.557 266.854 232.24C267.536 232.923 267.92 233.849 267.92 234.815C267.92 235.781 267.536 236.707 266.854 237.391C266.172 238.074 265.246 238.457 264.281 238.457Z" fill="#E6E6E6"/>
<path d="M284.856 307.423H266.574C264.934 307.423 263.36 306.77 262.2 305.609C261.039 304.447 260.387 302.872 260.387 301.229C260.387 299.587 261.039 298.011 262.2 296.85C263.36 295.688 264.934 295.036 266.574 295.036H284.856C286.497 295.036 288.071 295.688 289.231 296.85C290.391 298.011 291.043 299.587 291.043 301.229C291.043 302.872 290.391 304.447 289.231 305.609C288.071 306.77 286.497 307.423 284.856 307.423Z" fill="#6C63FF"/>
<path d="M86.2005 262.47C103.776 262.47 118.023 248.208 118.023 230.614C118.023 213.021 103.776 198.758 86.2005 198.758C68.6252 198.758 54.3777 213.021 54.3777 230.614C54.3777 248.208 68.6252 262.47 86.2005 262.47Z" fill="#6C63FF"/>
<path d="M458.591 424H0.842028C0.619134 423.999 0.405594 423.91 0.248211 423.752C0.0908284 423.594 0.00244427 423.38 0.00244427 423.157C0.00244427 422.934 0.0908284 422.72 0.248211 422.562C0.405594 422.404 0.619134 422.315 0.842028 422.314H458.591C458.814 422.315 459.027 422.404 459.185 422.562C459.342 422.72 459.43 422.934 459.43 423.157C459.43 423.38 459.342 423.594 459.185 423.752C459.027 423.91 458.814 423.999 458.591 424Z" fill="#CACACA"/>
<path d="M172.41 140.237C173.073 140.237 173.61 139.699 173.61 139.036C173.61 138.373 173.073 137.836 172.41 137.836C171.748 137.836 171.211 138.373 171.211 139.036C171.211 139.699 171.748 140.237 172.41 140.237Z" fill="white"/>
</g>
<defs>
<clipPath id="clip0_103_27">
<rect width="515" height="424" fill="white"/>
</clipPath>
</defs>
</svg>
